%TF.GenerationSoftware,KiCad,Pcbnew,7.0.1*%
%TF.CreationDate,2023-05-07T00:29:05-04:00*%
%TF.ProjectId,integrated_joystick_dac,696e7465-6772-4617-9465-645f6a6f7973,rev?*%
%TF.SameCoordinates,Original*%
%TF.FileFunction,Legend,Top*%
%TF.FilePolarity,Positive*%
%FSLAX46Y46*%
G04 Gerber Fmt 4.6, Leading zero omitted, Abs format (unit mm)*
G04 Created by KiCad (PCBNEW 7.0.1) date 2023-05-07 00:29:05*
%MOMM*%
%LPD*%
G01*
G04 APERTURE LIST*
%ADD10C,0.150000*%
%ADD11C,0.120000*%
G04 APERTURE END LIST*
D10*
%TO.C,C3*%
X154138333Y-80377380D02*
X154090714Y-80425000D01*
X154090714Y-80425000D02*
X153947857Y-80472619D01*
X153947857Y-80472619D02*
X153852619Y-80472619D01*
X153852619Y-80472619D02*
X153709762Y-80425000D01*
X153709762Y-80425000D02*
X153614524Y-80329761D01*
X153614524Y-80329761D02*
X153566905Y-80234523D01*
X153566905Y-80234523D02*
X153519286Y-80044047D01*
X153519286Y-80044047D02*
X153519286Y-79901190D01*
X153519286Y-79901190D02*
X153566905Y-79710714D01*
X153566905Y-79710714D02*
X153614524Y-79615476D01*
X153614524Y-79615476D02*
X153709762Y-79520238D01*
X153709762Y-79520238D02*
X153852619Y-79472619D01*
X153852619Y-79472619D02*
X153947857Y-79472619D01*
X153947857Y-79472619D02*
X154090714Y-79520238D01*
X154090714Y-79520238D02*
X154138333Y-79567857D01*
X154471667Y-79472619D02*
X155090714Y-79472619D01*
X155090714Y-79472619D02*
X154757381Y-79853571D01*
X154757381Y-79853571D02*
X154900238Y-79853571D01*
X154900238Y-79853571D02*
X154995476Y-79901190D01*
X154995476Y-79901190D02*
X155043095Y-79948809D01*
X155043095Y-79948809D02*
X155090714Y-80044047D01*
X155090714Y-80044047D02*
X155090714Y-80282142D01*
X155090714Y-80282142D02*
X155043095Y-80377380D01*
X155043095Y-80377380D02*
X154995476Y-80425000D01*
X154995476Y-80425000D02*
X154900238Y-80472619D01*
X154900238Y-80472619D02*
X154614524Y-80472619D01*
X154614524Y-80472619D02*
X154519286Y-80425000D01*
X154519286Y-80425000D02*
X154471667Y-80377380D01*
%TO.C,C4*%
X153503333Y-78472380D02*
X153455714Y-78520000D01*
X153455714Y-78520000D02*
X153312857Y-78567619D01*
X153312857Y-78567619D02*
X153217619Y-78567619D01*
X153217619Y-78567619D02*
X153074762Y-78520000D01*
X153074762Y-78520000D02*
X152979524Y-78424761D01*
X152979524Y-78424761D02*
X152931905Y-78329523D01*
X152931905Y-78329523D02*
X152884286Y-78139047D01*
X152884286Y-78139047D02*
X152884286Y-77996190D01*
X152884286Y-77996190D02*
X152931905Y-77805714D01*
X152931905Y-77805714D02*
X152979524Y-77710476D01*
X152979524Y-77710476D02*
X153074762Y-77615238D01*
X153074762Y-77615238D02*
X153217619Y-77567619D01*
X153217619Y-77567619D02*
X153312857Y-77567619D01*
X153312857Y-77567619D02*
X153455714Y-77615238D01*
X153455714Y-77615238D02*
X153503333Y-77662857D01*
X154360476Y-77900952D02*
X154360476Y-78567619D01*
X154122381Y-77520000D02*
X153884286Y-78234285D01*
X153884286Y-78234285D02*
X154503333Y-78234285D01*
%TO.C,U3*%
X154178095Y-62462619D02*
X154178095Y-63272142D01*
X154178095Y-63272142D02*
X154225714Y-63367380D01*
X154225714Y-63367380D02*
X154273333Y-63415000D01*
X154273333Y-63415000D02*
X154368571Y-63462619D01*
X154368571Y-63462619D02*
X154559047Y-63462619D01*
X154559047Y-63462619D02*
X154654285Y-63415000D01*
X154654285Y-63415000D02*
X154701904Y-63367380D01*
X154701904Y-63367380D02*
X154749523Y-63272142D01*
X154749523Y-63272142D02*
X154749523Y-62462619D01*
X155130476Y-62462619D02*
X155749523Y-62462619D01*
X155749523Y-62462619D02*
X155416190Y-62843571D01*
X155416190Y-62843571D02*
X155559047Y-62843571D01*
X155559047Y-62843571D02*
X155654285Y-62891190D01*
X155654285Y-62891190D02*
X155701904Y-62938809D01*
X155701904Y-62938809D02*
X155749523Y-63034047D01*
X155749523Y-63034047D02*
X155749523Y-63272142D01*
X155749523Y-63272142D02*
X155701904Y-63367380D01*
X155701904Y-63367380D02*
X155654285Y-63415000D01*
X155654285Y-63415000D02*
X155559047Y-63462619D01*
X155559047Y-63462619D02*
X155273333Y-63462619D01*
X155273333Y-63462619D02*
X155178095Y-63415000D01*
X155178095Y-63415000D02*
X155130476Y-63367380D01*
X149127380Y-71850238D02*
X148127380Y-72183571D01*
X148127380Y-72183571D02*
X149127380Y-72516904D01*
X148127380Y-72850238D02*
X149127380Y-72850238D01*
X148127380Y-73326428D02*
X149127380Y-73326428D01*
X149127380Y-73326428D02*
X148127380Y-73897856D01*
X148127380Y-73897856D02*
X149127380Y-73897856D01*
X155795000Y-71945476D02*
X155747380Y-72088333D01*
X155747380Y-72088333D02*
X155747380Y-72326428D01*
X155747380Y-72326428D02*
X155795000Y-72421666D01*
X155795000Y-72421666D02*
X155842619Y-72469285D01*
X155842619Y-72469285D02*
X155937857Y-72516904D01*
X155937857Y-72516904D02*
X156033095Y-72516904D01*
X156033095Y-72516904D02*
X156128333Y-72469285D01*
X156128333Y-72469285D02*
X156175952Y-72421666D01*
X156175952Y-72421666D02*
X156223571Y-72326428D01*
X156223571Y-72326428D02*
X156271190Y-72135952D01*
X156271190Y-72135952D02*
X156318809Y-72040714D01*
X156318809Y-72040714D02*
X156366428Y-71993095D01*
X156366428Y-71993095D02*
X156461666Y-71945476D01*
X156461666Y-71945476D02*
X156556904Y-71945476D01*
X156556904Y-71945476D02*
X156652142Y-71993095D01*
X156652142Y-71993095D02*
X156699761Y-72040714D01*
X156699761Y-72040714D02*
X156747380Y-72135952D01*
X156747380Y-72135952D02*
X156747380Y-72374047D01*
X156747380Y-72374047D02*
X156699761Y-72516904D01*
X155842619Y-73516904D02*
X155795000Y-73469285D01*
X155795000Y-73469285D02*
X155747380Y-73326428D01*
X155747380Y-73326428D02*
X155747380Y-73231190D01*
X155747380Y-73231190D02*
X155795000Y-73088333D01*
X155795000Y-73088333D02*
X155890238Y-72993095D01*
X155890238Y-72993095D02*
X155985476Y-72945476D01*
X155985476Y-72945476D02*
X156175952Y-72897857D01*
X156175952Y-72897857D02*
X156318809Y-72897857D01*
X156318809Y-72897857D02*
X156509285Y-72945476D01*
X156509285Y-72945476D02*
X156604523Y-72993095D01*
X156604523Y-72993095D02*
X156699761Y-73088333D01*
X156699761Y-73088333D02*
X156747380Y-73231190D01*
X156747380Y-73231190D02*
X156747380Y-73326428D01*
X156747380Y-73326428D02*
X156699761Y-73469285D01*
X156699761Y-73469285D02*
X156652142Y-73516904D01*
X155747380Y-74421666D02*
X155747380Y-73945476D01*
X155747380Y-73945476D02*
X156747380Y-73945476D01*
X151667380Y-71897857D02*
X151667380Y-72516904D01*
X151667380Y-72516904D02*
X151286428Y-72183571D01*
X151286428Y-72183571D02*
X151286428Y-72326428D01*
X151286428Y-72326428D02*
X151238809Y-72421666D01*
X151238809Y-72421666D02*
X151191190Y-72469285D01*
X151191190Y-72469285D02*
X151095952Y-72516904D01*
X151095952Y-72516904D02*
X150857857Y-72516904D01*
X150857857Y-72516904D02*
X150762619Y-72469285D01*
X150762619Y-72469285D02*
X150715000Y-72421666D01*
X150715000Y-72421666D02*
X150667380Y-72326428D01*
X150667380Y-72326428D02*
X150667380Y-72040714D01*
X150667380Y-72040714D02*
X150715000Y-71945476D01*
X150715000Y-71945476D02*
X150762619Y-71897857D01*
X151667380Y-72802619D02*
X150667380Y-73135952D01*
X150667380Y-73135952D02*
X151667380Y-73469285D01*
X154159761Y-72516904D02*
X154207380Y-72421666D01*
X154207380Y-72421666D02*
X154207380Y-72278809D01*
X154207380Y-72278809D02*
X154159761Y-72135952D01*
X154159761Y-72135952D02*
X154064523Y-72040714D01*
X154064523Y-72040714D02*
X153969285Y-71993095D01*
X153969285Y-71993095D02*
X153778809Y-71945476D01*
X153778809Y-71945476D02*
X153635952Y-71945476D01*
X153635952Y-71945476D02*
X153445476Y-71993095D01*
X153445476Y-71993095D02*
X153350238Y-72040714D01*
X153350238Y-72040714D02*
X153255000Y-72135952D01*
X153255000Y-72135952D02*
X153207380Y-72278809D01*
X153207380Y-72278809D02*
X153207380Y-72374047D01*
X153207380Y-72374047D02*
X153255000Y-72516904D01*
X153255000Y-72516904D02*
X153302619Y-72564523D01*
X153302619Y-72564523D02*
X153635952Y-72564523D01*
X153635952Y-72564523D02*
X153635952Y-72374047D01*
X153207380Y-72993095D02*
X154207380Y-72993095D01*
X154207380Y-72993095D02*
X153207380Y-73564523D01*
X153207380Y-73564523D02*
X154207380Y-73564523D01*
X153207380Y-74040714D02*
X154207380Y-74040714D01*
X154207380Y-74040714D02*
X154207380Y-74278809D01*
X154207380Y-74278809D02*
X154159761Y-74421666D01*
X154159761Y-74421666D02*
X154064523Y-74516904D01*
X154064523Y-74516904D02*
X153969285Y-74564523D01*
X153969285Y-74564523D02*
X153778809Y-74612142D01*
X153778809Y-74612142D02*
X153635952Y-74612142D01*
X153635952Y-74612142D02*
X153445476Y-74564523D01*
X153445476Y-74564523D02*
X153350238Y-74516904D01*
X153350238Y-74516904D02*
X153255000Y-74421666D01*
X153255000Y-74421666D02*
X153207380Y-74278809D01*
X153207380Y-74278809D02*
X153207380Y-74040714D01*
X151497380Y-51895476D02*
X151545000Y-51943095D01*
X151545000Y-51943095D02*
X151592619Y-52085952D01*
X151592619Y-52085952D02*
X151592619Y-52181190D01*
X151592619Y-52181190D02*
X151545000Y-52324047D01*
X151545000Y-52324047D02*
X151449761Y-52419285D01*
X151449761Y-52419285D02*
X151354523Y-52466904D01*
X151354523Y-52466904D02*
X151164047Y-52514523D01*
X151164047Y-52514523D02*
X151021190Y-52514523D01*
X151021190Y-52514523D02*
X150830714Y-52466904D01*
X150830714Y-52466904D02*
X150735476Y-52419285D01*
X150735476Y-52419285D02*
X150640238Y-52324047D01*
X150640238Y-52324047D02*
X150592619Y-52181190D01*
X150592619Y-52181190D02*
X150592619Y-52085952D01*
X150592619Y-52085952D02*
X150640238Y-51943095D01*
X150640238Y-51943095D02*
X150687857Y-51895476D01*
X151545000Y-51514523D02*
X151592619Y-51371666D01*
X151592619Y-51371666D02*
X151592619Y-51133571D01*
X151592619Y-51133571D02*
X151545000Y-51038333D01*
X151545000Y-51038333D02*
X151497380Y-50990714D01*
X151497380Y-50990714D02*
X151402142Y-50943095D01*
X151402142Y-50943095D02*
X151306904Y-50943095D01*
X151306904Y-50943095D02*
X151211666Y-50990714D01*
X151211666Y-50990714D02*
X151164047Y-51038333D01*
X151164047Y-51038333D02*
X151116428Y-51133571D01*
X151116428Y-51133571D02*
X151068809Y-51324047D01*
X151068809Y-51324047D02*
X151021190Y-51419285D01*
X151021190Y-51419285D02*
X150973571Y-51466904D01*
X150973571Y-51466904D02*
X150878333Y-51514523D01*
X150878333Y-51514523D02*
X150783095Y-51514523D01*
X150783095Y-51514523D02*
X150687857Y-51466904D01*
X150687857Y-51466904D02*
X150640238Y-51419285D01*
X150640238Y-51419285D02*
X150592619Y-51324047D01*
X150592619Y-51324047D02*
X150592619Y-51085952D01*
X150592619Y-51085952D02*
X150640238Y-50943095D01*
X151592619Y-50514523D02*
X150592619Y-50514523D01*
X150592619Y-50514523D02*
X151306904Y-50181190D01*
X151306904Y-50181190D02*
X150592619Y-49847857D01*
X150592619Y-49847857D02*
X151592619Y-49847857D01*
X154037380Y-51895476D02*
X154085000Y-51943095D01*
X154085000Y-51943095D02*
X154132619Y-52085952D01*
X154132619Y-52085952D02*
X154132619Y-52181190D01*
X154132619Y-52181190D02*
X154085000Y-52324047D01*
X154085000Y-52324047D02*
X153989761Y-52419285D01*
X153989761Y-52419285D02*
X153894523Y-52466904D01*
X153894523Y-52466904D02*
X153704047Y-52514523D01*
X153704047Y-52514523D02*
X153561190Y-52514523D01*
X153561190Y-52514523D02*
X153370714Y-52466904D01*
X153370714Y-52466904D02*
X153275476Y-52419285D01*
X153275476Y-52419285D02*
X153180238Y-52324047D01*
X153180238Y-52324047D02*
X153132619Y-52181190D01*
X153132619Y-52181190D02*
X153132619Y-52085952D01*
X153132619Y-52085952D02*
X153180238Y-51943095D01*
X153180238Y-51943095D02*
X153227857Y-51895476D01*
X154085000Y-51514523D02*
X154132619Y-51371666D01*
X154132619Y-51371666D02*
X154132619Y-51133571D01*
X154132619Y-51133571D02*
X154085000Y-51038333D01*
X154085000Y-51038333D02*
X154037380Y-50990714D01*
X154037380Y-50990714D02*
X153942142Y-50943095D01*
X153942142Y-50943095D02*
X153846904Y-50943095D01*
X153846904Y-50943095D02*
X153751666Y-50990714D01*
X153751666Y-50990714D02*
X153704047Y-51038333D01*
X153704047Y-51038333D02*
X153656428Y-51133571D01*
X153656428Y-51133571D02*
X153608809Y-51324047D01*
X153608809Y-51324047D02*
X153561190Y-51419285D01*
X153561190Y-51419285D02*
X153513571Y-51466904D01*
X153513571Y-51466904D02*
X153418333Y-51514523D01*
X153418333Y-51514523D02*
X153323095Y-51514523D01*
X153323095Y-51514523D02*
X153227857Y-51466904D01*
X153227857Y-51466904D02*
X153180238Y-51419285D01*
X153180238Y-51419285D02*
X153132619Y-51324047D01*
X153132619Y-51324047D02*
X153132619Y-51085952D01*
X153132619Y-51085952D02*
X153180238Y-50943095D01*
X153846904Y-50562142D02*
X153846904Y-50085952D01*
X154132619Y-50657380D02*
X153132619Y-50324047D01*
X153132619Y-50324047D02*
X154132619Y-49990714D01*
X159212619Y-52466904D02*
X158212619Y-52466904D01*
X158926904Y-52038333D02*
X158926904Y-51562143D01*
X159212619Y-52133571D02*
X158212619Y-51800238D01*
X158212619Y-51800238D02*
X159212619Y-51466905D01*
X158307857Y-51181190D02*
X158260238Y-51133571D01*
X158260238Y-51133571D02*
X158212619Y-51038333D01*
X158212619Y-51038333D02*
X158212619Y-50800238D01*
X158212619Y-50800238D02*
X158260238Y-50705000D01*
X158260238Y-50705000D02*
X158307857Y-50657381D01*
X158307857Y-50657381D02*
X158403095Y-50609762D01*
X158403095Y-50609762D02*
X158498333Y-50609762D01*
X158498333Y-50609762D02*
X158641190Y-50657381D01*
X158641190Y-50657381D02*
X159212619Y-51228809D01*
X159212619Y-51228809D02*
X159212619Y-50609762D01*
X156672619Y-52466904D02*
X155672619Y-52466904D01*
X156386904Y-52038333D02*
X156386904Y-51562143D01*
X156672619Y-52133571D02*
X155672619Y-51800238D01*
X155672619Y-51800238D02*
X156672619Y-51466905D01*
X156672619Y-50609762D02*
X156672619Y-51181190D01*
X156672619Y-50895476D02*
X155672619Y-50895476D01*
X155672619Y-50895476D02*
X155815476Y-50990714D01*
X155815476Y-50990714D02*
X155910714Y-51085952D01*
X155910714Y-51085952D02*
X155958333Y-51181190D01*
X147535237Y-59866904D02*
X148011427Y-59866904D01*
X147439999Y-60152619D02*
X147773332Y-59152619D01*
X147773332Y-59152619D02*
X148106665Y-60152619D01*
X148868570Y-60152619D02*
X148868570Y-59152619D01*
X148868570Y-60105000D02*
X148773332Y-60152619D01*
X148773332Y-60152619D02*
X148582856Y-60152619D01*
X148582856Y-60152619D02*
X148487618Y-60105000D01*
X148487618Y-60105000D02*
X148439999Y-60057380D01*
X148439999Y-60057380D02*
X148392380Y-59962142D01*
X148392380Y-59962142D02*
X148392380Y-59676428D01*
X148392380Y-59676428D02*
X148439999Y-59581190D01*
X148439999Y-59581190D02*
X148487618Y-59533571D01*
X148487618Y-59533571D02*
X148582856Y-59485952D01*
X148582856Y-59485952D02*
X148773332Y-59485952D01*
X148773332Y-59485952D02*
X148868570Y-59533571D01*
X149773332Y-60152619D02*
X149773332Y-59628809D01*
X149773332Y-59628809D02*
X149725713Y-59533571D01*
X149725713Y-59533571D02*
X149630475Y-59485952D01*
X149630475Y-59485952D02*
X149439999Y-59485952D01*
X149439999Y-59485952D02*
X149344761Y-59533571D01*
X149773332Y-60105000D02*
X149678094Y-60152619D01*
X149678094Y-60152619D02*
X149439999Y-60152619D01*
X149439999Y-60152619D02*
X149344761Y-60105000D01*
X149344761Y-60105000D02*
X149297142Y-60009761D01*
X149297142Y-60009761D02*
X149297142Y-59914523D01*
X149297142Y-59914523D02*
X149344761Y-59819285D01*
X149344761Y-59819285D02*
X149439999Y-59771666D01*
X149439999Y-59771666D02*
X149678094Y-59771666D01*
X149678094Y-59771666D02*
X149773332Y-59724047D01*
X150106666Y-59485952D02*
X150487618Y-59485952D01*
X150249523Y-60152619D02*
X150249523Y-59295476D01*
X150249523Y-59295476D02*
X150297142Y-59200238D01*
X150297142Y-59200238D02*
X150392380Y-59152619D01*
X150392380Y-59152619D02*
X150487618Y-59152619D01*
X150820952Y-60152619D02*
X150820952Y-59485952D01*
X150820952Y-59676428D02*
X150868571Y-59581190D01*
X150868571Y-59581190D02*
X150916190Y-59533571D01*
X150916190Y-59533571D02*
X151011428Y-59485952D01*
X151011428Y-59485952D02*
X151106666Y-59485952D01*
X151868571Y-59485952D02*
X151868571Y-60152619D01*
X151440000Y-59485952D02*
X151440000Y-60009761D01*
X151440000Y-60009761D02*
X151487619Y-60105000D01*
X151487619Y-60105000D02*
X151582857Y-60152619D01*
X151582857Y-60152619D02*
X151725714Y-60152619D01*
X151725714Y-60152619D02*
X151820952Y-60105000D01*
X151820952Y-60105000D02*
X151868571Y-60057380D01*
X152344762Y-60152619D02*
X152344762Y-59485952D01*
X152344762Y-59152619D02*
X152297143Y-59200238D01*
X152297143Y-59200238D02*
X152344762Y-59247857D01*
X152344762Y-59247857D02*
X152392381Y-59200238D01*
X152392381Y-59200238D02*
X152344762Y-59152619D01*
X152344762Y-59152619D02*
X152344762Y-59247857D01*
X152678095Y-59485952D02*
X153059047Y-59485952D01*
X152820952Y-59152619D02*
X152820952Y-60009761D01*
X152820952Y-60009761D02*
X152868571Y-60105000D01*
X152868571Y-60105000D02*
X152963809Y-60152619D01*
X152963809Y-60152619D02*
X153059047Y-60152619D01*
X154630476Y-60152619D02*
X154154286Y-60152619D01*
X154154286Y-60152619D02*
X154154286Y-59152619D01*
X154916191Y-60105000D02*
X155059048Y-60152619D01*
X155059048Y-60152619D02*
X155297143Y-60152619D01*
X155297143Y-60152619D02*
X155392381Y-60105000D01*
X155392381Y-60105000D02*
X155440000Y-60057380D01*
X155440000Y-60057380D02*
X155487619Y-59962142D01*
X155487619Y-59962142D02*
X155487619Y-59866904D01*
X155487619Y-59866904D02*
X155440000Y-59771666D01*
X155440000Y-59771666D02*
X155392381Y-59724047D01*
X155392381Y-59724047D02*
X155297143Y-59676428D01*
X155297143Y-59676428D02*
X155106667Y-59628809D01*
X155106667Y-59628809D02*
X155011429Y-59581190D01*
X155011429Y-59581190D02*
X154963810Y-59533571D01*
X154963810Y-59533571D02*
X154916191Y-59438333D01*
X154916191Y-59438333D02*
X154916191Y-59343095D01*
X154916191Y-59343095D02*
X154963810Y-59247857D01*
X154963810Y-59247857D02*
X155011429Y-59200238D01*
X155011429Y-59200238D02*
X155106667Y-59152619D01*
X155106667Y-59152619D02*
X155344762Y-59152619D01*
X155344762Y-59152619D02*
X155487619Y-59200238D01*
X155916191Y-60152619D02*
X155916191Y-59152619D01*
X155916191Y-59152619D02*
X156249524Y-59866904D01*
X156249524Y-59866904D02*
X156582857Y-59152619D01*
X156582857Y-59152619D02*
X156582857Y-60152619D01*
X156963810Y-59152619D02*
X157582857Y-59152619D01*
X157582857Y-59152619D02*
X157249524Y-59533571D01*
X157249524Y-59533571D02*
X157392381Y-59533571D01*
X157392381Y-59533571D02*
X157487619Y-59581190D01*
X157487619Y-59581190D02*
X157535238Y-59628809D01*
X157535238Y-59628809D02*
X157582857Y-59724047D01*
X157582857Y-59724047D02*
X157582857Y-59962142D01*
X157582857Y-59962142D02*
X157535238Y-60057380D01*
X157535238Y-60057380D02*
X157487619Y-60105000D01*
X157487619Y-60105000D02*
X157392381Y-60152619D01*
X157392381Y-60152619D02*
X157106667Y-60152619D01*
X157106667Y-60152619D02*
X157011429Y-60105000D01*
X157011429Y-60105000D02*
X156963810Y-60057380D01*
X158201905Y-59152619D02*
X158297143Y-59152619D01*
X158297143Y-59152619D02*
X158392381Y-59200238D01*
X158392381Y-59200238D02*
X158440000Y-59247857D01*
X158440000Y-59247857D02*
X158487619Y-59343095D01*
X158487619Y-59343095D02*
X158535238Y-59533571D01*
X158535238Y-59533571D02*
X158535238Y-59771666D01*
X158535238Y-59771666D02*
X158487619Y-59962142D01*
X158487619Y-59962142D02*
X158440000Y-60057380D01*
X158440000Y-60057380D02*
X158392381Y-60105000D01*
X158392381Y-60105000D02*
X158297143Y-60152619D01*
X158297143Y-60152619D02*
X158201905Y-60152619D01*
X158201905Y-60152619D02*
X158106667Y-60105000D01*
X158106667Y-60105000D02*
X158059048Y-60057380D01*
X158059048Y-60057380D02*
X158011429Y-59962142D01*
X158011429Y-59962142D02*
X157963810Y-59771666D01*
X157963810Y-59771666D02*
X157963810Y-59533571D01*
X157963810Y-59533571D02*
X158011429Y-59343095D01*
X158011429Y-59343095D02*
X158059048Y-59247857D01*
X158059048Y-59247857D02*
X158106667Y-59200238D01*
X158106667Y-59200238D02*
X158201905Y-59152619D01*
X158868572Y-59152619D02*
X159487619Y-59152619D01*
X159487619Y-59152619D02*
X159154286Y-59533571D01*
X159154286Y-59533571D02*
X159297143Y-59533571D01*
X159297143Y-59533571D02*
X159392381Y-59581190D01*
X159392381Y-59581190D02*
X159440000Y-59628809D01*
X159440000Y-59628809D02*
X159487619Y-59724047D01*
X159487619Y-59724047D02*
X159487619Y-59962142D01*
X159487619Y-59962142D02*
X159440000Y-60057380D01*
X159440000Y-60057380D02*
X159392381Y-60105000D01*
X159392381Y-60105000D02*
X159297143Y-60152619D01*
X159297143Y-60152619D02*
X159011429Y-60152619D01*
X159011429Y-60152619D02*
X158916191Y-60105000D01*
X158916191Y-60105000D02*
X158868572Y-60057380D01*
X159868572Y-59866904D02*
X160344762Y-59866904D01*
X159773334Y-60152619D02*
X160106667Y-59152619D01*
X160106667Y-59152619D02*
X160440000Y-60152619D01*
X161297143Y-59200238D02*
X161201905Y-59152619D01*
X161201905Y-59152619D02*
X161059048Y-59152619D01*
X161059048Y-59152619D02*
X160916191Y-59200238D01*
X160916191Y-59200238D02*
X160820953Y-59295476D01*
X160820953Y-59295476D02*
X160773334Y-59390714D01*
X160773334Y-59390714D02*
X160725715Y-59581190D01*
X160725715Y-59581190D02*
X160725715Y-59724047D01*
X160725715Y-59724047D02*
X160773334Y-59914523D01*
X160773334Y-59914523D02*
X160820953Y-60009761D01*
X160820953Y-60009761D02*
X160916191Y-60105000D01*
X160916191Y-60105000D02*
X161059048Y-60152619D01*
X161059048Y-60152619D02*
X161154286Y-60152619D01*
X161154286Y-60152619D02*
X161297143Y-60105000D01*
X161297143Y-60105000D02*
X161344762Y-60057380D01*
X161344762Y-60057380D02*
X161344762Y-59724047D01*
X161344762Y-59724047D02*
X161154286Y-59724047D01*
X162344762Y-60152619D02*
X162011429Y-59676428D01*
X161773334Y-60152619D02*
X161773334Y-59152619D01*
X161773334Y-59152619D02*
X162154286Y-59152619D01*
X162154286Y-59152619D02*
X162249524Y-59200238D01*
X162249524Y-59200238D02*
X162297143Y-59247857D01*
X162297143Y-59247857D02*
X162344762Y-59343095D01*
X162344762Y-59343095D02*
X162344762Y-59485952D01*
X162344762Y-59485952D02*
X162297143Y-59581190D01*
X162297143Y-59581190D02*
X162249524Y-59628809D01*
X162249524Y-59628809D02*
X162154286Y-59676428D01*
X162154286Y-59676428D02*
X161773334Y-59676428D01*
X160827380Y-71993095D02*
X161827380Y-71993095D01*
X160827380Y-72469285D02*
X161827380Y-72469285D01*
X161827380Y-72469285D02*
X160827380Y-73040713D01*
X160827380Y-73040713D02*
X161827380Y-73040713D01*
X161827380Y-73374047D02*
X161827380Y-73945475D01*
X160827380Y-73659761D02*
X161827380Y-73659761D01*
X160827380Y-74278809D02*
X161827380Y-74278809D01*
X161827380Y-74278809D02*
X161113095Y-74612142D01*
X161113095Y-74612142D02*
X161827380Y-74945475D01*
X161827380Y-74945475D02*
X160827380Y-74945475D01*
X158335000Y-71945476D02*
X158287380Y-72088333D01*
X158287380Y-72088333D02*
X158287380Y-72326428D01*
X158287380Y-72326428D02*
X158335000Y-72421666D01*
X158335000Y-72421666D02*
X158382619Y-72469285D01*
X158382619Y-72469285D02*
X158477857Y-72516904D01*
X158477857Y-72516904D02*
X158573095Y-72516904D01*
X158573095Y-72516904D02*
X158668333Y-72469285D01*
X158668333Y-72469285D02*
X158715952Y-72421666D01*
X158715952Y-72421666D02*
X158763571Y-72326428D01*
X158763571Y-72326428D02*
X158811190Y-72135952D01*
X158811190Y-72135952D02*
X158858809Y-72040714D01*
X158858809Y-72040714D02*
X158906428Y-71993095D01*
X158906428Y-71993095D02*
X159001666Y-71945476D01*
X159001666Y-71945476D02*
X159096904Y-71945476D01*
X159096904Y-71945476D02*
X159192142Y-71993095D01*
X159192142Y-71993095D02*
X159239761Y-72040714D01*
X159239761Y-72040714D02*
X159287380Y-72135952D01*
X159287380Y-72135952D02*
X159287380Y-72374047D01*
X159287380Y-72374047D02*
X159239761Y-72516904D01*
X158287380Y-72945476D02*
X159287380Y-72945476D01*
X159287380Y-72945476D02*
X159287380Y-73183571D01*
X159287380Y-73183571D02*
X159239761Y-73326428D01*
X159239761Y-73326428D02*
X159144523Y-73421666D01*
X159144523Y-73421666D02*
X159049285Y-73469285D01*
X159049285Y-73469285D02*
X158858809Y-73516904D01*
X158858809Y-73516904D02*
X158715952Y-73516904D01*
X158715952Y-73516904D02*
X158525476Y-73469285D01*
X158525476Y-73469285D02*
X158430238Y-73421666D01*
X158430238Y-73421666D02*
X158335000Y-73326428D01*
X158335000Y-73326428D02*
X158287380Y-73183571D01*
X158287380Y-73183571D02*
X158287380Y-72945476D01*
X158573095Y-73897857D02*
X158573095Y-74374047D01*
X158287380Y-73802619D02*
X159287380Y-74135952D01*
X159287380Y-74135952D02*
X158287380Y-74469285D01*
%TO.C,C2*%
X170547380Y-83986666D02*
X170595000Y-84034285D01*
X170595000Y-84034285D02*
X170642619Y-84177142D01*
X170642619Y-84177142D02*
X170642619Y-84272380D01*
X170642619Y-84272380D02*
X170595000Y-84415237D01*
X170595000Y-84415237D02*
X170499761Y-84510475D01*
X170499761Y-84510475D02*
X170404523Y-84558094D01*
X170404523Y-84558094D02*
X170214047Y-84605713D01*
X170214047Y-84605713D02*
X170071190Y-84605713D01*
X170071190Y-84605713D02*
X169880714Y-84558094D01*
X169880714Y-84558094D02*
X169785476Y-84510475D01*
X169785476Y-84510475D02*
X169690238Y-84415237D01*
X169690238Y-84415237D02*
X169642619Y-84272380D01*
X169642619Y-84272380D02*
X169642619Y-84177142D01*
X169642619Y-84177142D02*
X169690238Y-84034285D01*
X169690238Y-84034285D02*
X169737857Y-83986666D01*
X169737857Y-83605713D02*
X169690238Y-83558094D01*
X169690238Y-83558094D02*
X169642619Y-83462856D01*
X169642619Y-83462856D02*
X169642619Y-83224761D01*
X169642619Y-83224761D02*
X169690238Y-83129523D01*
X169690238Y-83129523D02*
X169737857Y-83081904D01*
X169737857Y-83081904D02*
X169833095Y-83034285D01*
X169833095Y-83034285D02*
X169928333Y-83034285D01*
X169928333Y-83034285D02*
X170071190Y-83081904D01*
X170071190Y-83081904D02*
X170642619Y-83653332D01*
X170642619Y-83653332D02*
X170642619Y-83034285D01*
%TO.C,C1*%
X167499380Y-83986666D02*
X167547000Y-84034285D01*
X167547000Y-84034285D02*
X167594619Y-84177142D01*
X167594619Y-84177142D02*
X167594619Y-84272380D01*
X167594619Y-84272380D02*
X167547000Y-84415237D01*
X167547000Y-84415237D02*
X167451761Y-84510475D01*
X167451761Y-84510475D02*
X167356523Y-84558094D01*
X167356523Y-84558094D02*
X167166047Y-84605713D01*
X167166047Y-84605713D02*
X167023190Y-84605713D01*
X167023190Y-84605713D02*
X166832714Y-84558094D01*
X166832714Y-84558094D02*
X166737476Y-84510475D01*
X166737476Y-84510475D02*
X166642238Y-84415237D01*
X166642238Y-84415237D02*
X166594619Y-84272380D01*
X166594619Y-84272380D02*
X166594619Y-84177142D01*
X166594619Y-84177142D02*
X166642238Y-84034285D01*
X166642238Y-84034285D02*
X166689857Y-83986666D01*
X167594619Y-83034285D02*
X167594619Y-83605713D01*
X167594619Y-83319999D02*
X166594619Y-83319999D01*
X166594619Y-83319999D02*
X166737476Y-83415237D01*
X166737476Y-83415237D02*
X166832714Y-83510475D01*
X166832714Y-83510475D02*
X166880333Y-83605713D01*
%TO.C,J1*%
X135751666Y-36432619D02*
X135751666Y-37146904D01*
X135751666Y-37146904D02*
X135704047Y-37289761D01*
X135704047Y-37289761D02*
X135608809Y-37385000D01*
X135608809Y-37385000D02*
X135465952Y-37432619D01*
X135465952Y-37432619D02*
X135370714Y-37432619D01*
X136751666Y-37432619D02*
X136180238Y-37432619D01*
X136465952Y-37432619D02*
X136465952Y-36432619D01*
X136465952Y-36432619D02*
X136370714Y-36575476D01*
X136370714Y-36575476D02*
X136275476Y-36670714D01*
X136275476Y-36670714D02*
X136180238Y-36718333D01*
%TO.C,U2*%
X155788095Y-80742619D02*
X155788095Y-81552142D01*
X155788095Y-81552142D02*
X155835714Y-81647380D01*
X155835714Y-81647380D02*
X155883333Y-81695000D01*
X155883333Y-81695000D02*
X155978571Y-81742619D01*
X155978571Y-81742619D02*
X156169047Y-81742619D01*
X156169047Y-81742619D02*
X156264285Y-81695000D01*
X156264285Y-81695000D02*
X156311904Y-81647380D01*
X156311904Y-81647380D02*
X156359523Y-81552142D01*
X156359523Y-81552142D02*
X156359523Y-80742619D01*
X156788095Y-80837857D02*
X156835714Y-80790238D01*
X156835714Y-80790238D02*
X156930952Y-80742619D01*
X156930952Y-80742619D02*
X157169047Y-80742619D01*
X157169047Y-80742619D02*
X157264285Y-80790238D01*
X157264285Y-80790238D02*
X157311904Y-80837857D01*
X157311904Y-80837857D02*
X157359523Y-80933095D01*
X157359523Y-80933095D02*
X157359523Y-81028333D01*
X157359523Y-81028333D02*
X157311904Y-81171190D01*
X157311904Y-81171190D02*
X156740476Y-81742619D01*
X156740476Y-81742619D02*
X157359523Y-81742619D01*
%TO.C,R3*%
X143507619Y-81446666D02*
X143031428Y-81779999D01*
X143507619Y-82018094D02*
X142507619Y-82018094D01*
X142507619Y-82018094D02*
X142507619Y-81637142D01*
X142507619Y-81637142D02*
X142555238Y-81541904D01*
X142555238Y-81541904D02*
X142602857Y-81494285D01*
X142602857Y-81494285D02*
X142698095Y-81446666D01*
X142698095Y-81446666D02*
X142840952Y-81446666D01*
X142840952Y-81446666D02*
X142936190Y-81494285D01*
X142936190Y-81494285D02*
X142983809Y-81541904D01*
X142983809Y-81541904D02*
X143031428Y-81637142D01*
X143031428Y-81637142D02*
X143031428Y-82018094D01*
X142507619Y-81113332D02*
X142507619Y-80494285D01*
X142507619Y-80494285D02*
X142888571Y-80827618D01*
X142888571Y-80827618D02*
X142888571Y-80684761D01*
X142888571Y-80684761D02*
X142936190Y-80589523D01*
X142936190Y-80589523D02*
X142983809Y-80541904D01*
X142983809Y-80541904D02*
X143079047Y-80494285D01*
X143079047Y-80494285D02*
X143317142Y-80494285D01*
X143317142Y-80494285D02*
X143412380Y-80541904D01*
X143412380Y-80541904D02*
X143460000Y-80589523D01*
X143460000Y-80589523D02*
X143507619Y-80684761D01*
X143507619Y-80684761D02*
X143507619Y-80970475D01*
X143507619Y-80970475D02*
X143460000Y-81065713D01*
X143460000Y-81065713D02*
X143412380Y-81113332D01*
%TO.C,R2*%
X138427619Y-81446666D02*
X137951428Y-81779999D01*
X138427619Y-82018094D02*
X137427619Y-82018094D01*
X137427619Y-82018094D02*
X137427619Y-81637142D01*
X137427619Y-81637142D02*
X137475238Y-81541904D01*
X137475238Y-81541904D02*
X137522857Y-81494285D01*
X137522857Y-81494285D02*
X137618095Y-81446666D01*
X137618095Y-81446666D02*
X137760952Y-81446666D01*
X137760952Y-81446666D02*
X137856190Y-81494285D01*
X137856190Y-81494285D02*
X137903809Y-81541904D01*
X137903809Y-81541904D02*
X137951428Y-81637142D01*
X137951428Y-81637142D02*
X137951428Y-82018094D01*
X137522857Y-81065713D02*
X137475238Y-81018094D01*
X137475238Y-81018094D02*
X137427619Y-80922856D01*
X137427619Y-80922856D02*
X137427619Y-80684761D01*
X137427619Y-80684761D02*
X137475238Y-80589523D01*
X137475238Y-80589523D02*
X137522857Y-80541904D01*
X137522857Y-80541904D02*
X137618095Y-80494285D01*
X137618095Y-80494285D02*
X137713333Y-80494285D01*
X137713333Y-80494285D02*
X137856190Y-80541904D01*
X137856190Y-80541904D02*
X138427619Y-81113332D01*
X138427619Y-81113332D02*
X138427619Y-80494285D01*
%TO.C,R1*%
X133347619Y-81446666D02*
X132871428Y-81779999D01*
X133347619Y-82018094D02*
X132347619Y-82018094D01*
X132347619Y-82018094D02*
X132347619Y-81637142D01*
X132347619Y-81637142D02*
X132395238Y-81541904D01*
X132395238Y-81541904D02*
X132442857Y-81494285D01*
X132442857Y-81494285D02*
X132538095Y-81446666D01*
X132538095Y-81446666D02*
X132680952Y-81446666D01*
X132680952Y-81446666D02*
X132776190Y-81494285D01*
X132776190Y-81494285D02*
X132823809Y-81541904D01*
X132823809Y-81541904D02*
X132871428Y-81637142D01*
X132871428Y-81637142D02*
X132871428Y-82018094D01*
X133347619Y-80494285D02*
X133347619Y-81065713D01*
X133347619Y-80779999D02*
X132347619Y-80779999D01*
X132347619Y-80779999D02*
X132490476Y-80875237D01*
X132490476Y-80875237D02*
X132585714Y-80970475D01*
X132585714Y-80970475D02*
X132633333Y-81065713D01*
%TO.C,U1*%
X180477619Y-68933904D02*
X181287142Y-68933904D01*
X181287142Y-68933904D02*
X181382380Y-68886285D01*
X181382380Y-68886285D02*
X181430000Y-68838666D01*
X181430000Y-68838666D02*
X181477619Y-68743428D01*
X181477619Y-68743428D02*
X181477619Y-68552952D01*
X181477619Y-68552952D02*
X181430000Y-68457714D01*
X181430000Y-68457714D02*
X181382380Y-68410095D01*
X181382380Y-68410095D02*
X181287142Y-68362476D01*
X181287142Y-68362476D02*
X180477619Y-68362476D01*
X181477619Y-67362476D02*
X181477619Y-67933904D01*
X181477619Y-67648190D02*
X180477619Y-67648190D01*
X180477619Y-67648190D02*
X180620476Y-67743428D01*
X180620476Y-67743428D02*
X180715714Y-67838666D01*
X180715714Y-67838666D02*
X180763333Y-67933904D01*
X168942142Y-64222238D02*
X168846904Y-64174619D01*
X168846904Y-64174619D02*
X168704047Y-64174619D01*
X168704047Y-64174619D02*
X168561190Y-64222238D01*
X168561190Y-64222238D02*
X168465952Y-64317476D01*
X168465952Y-64317476D02*
X168418333Y-64412714D01*
X168418333Y-64412714D02*
X168370714Y-64603190D01*
X168370714Y-64603190D02*
X168370714Y-64746047D01*
X168370714Y-64746047D02*
X168418333Y-64936523D01*
X168418333Y-64936523D02*
X168465952Y-65031761D01*
X168465952Y-65031761D02*
X168561190Y-65127000D01*
X168561190Y-65127000D02*
X168704047Y-65174619D01*
X168704047Y-65174619D02*
X168799285Y-65174619D01*
X168799285Y-65174619D02*
X168942142Y-65127000D01*
X168942142Y-65127000D02*
X168989761Y-65079380D01*
X168989761Y-65079380D02*
X168989761Y-64746047D01*
X168989761Y-64746047D02*
X168799285Y-64746047D01*
X169418333Y-65174619D02*
X169418333Y-64174619D01*
X169418333Y-64174619D02*
X169799285Y-64174619D01*
X169799285Y-64174619D02*
X169894523Y-64222238D01*
X169894523Y-64222238D02*
X169942142Y-64269857D01*
X169942142Y-64269857D02*
X169989761Y-64365095D01*
X169989761Y-64365095D02*
X169989761Y-64507952D01*
X169989761Y-64507952D02*
X169942142Y-64603190D01*
X169942142Y-64603190D02*
X169894523Y-64650809D01*
X169894523Y-64650809D02*
X169799285Y-64698428D01*
X169799285Y-64698428D02*
X169418333Y-64698428D01*
X170370714Y-64269857D02*
X170418333Y-64222238D01*
X170418333Y-64222238D02*
X170513571Y-64174619D01*
X170513571Y-64174619D02*
X170751666Y-64174619D01*
X170751666Y-64174619D02*
X170846904Y-64222238D01*
X170846904Y-64222238D02*
X170894523Y-64269857D01*
X170894523Y-64269857D02*
X170942142Y-64365095D01*
X170942142Y-64365095D02*
X170942142Y-64460333D01*
X170942142Y-64460333D02*
X170894523Y-64603190D01*
X170894523Y-64603190D02*
X170323095Y-65174619D01*
X170323095Y-65174619D02*
X170942142Y-65174619D01*
X171799285Y-64174619D02*
X171608809Y-64174619D01*
X171608809Y-64174619D02*
X171513571Y-64222238D01*
X171513571Y-64222238D02*
X171465952Y-64269857D01*
X171465952Y-64269857D02*
X171370714Y-64412714D01*
X171370714Y-64412714D02*
X171323095Y-64603190D01*
X171323095Y-64603190D02*
X171323095Y-64984142D01*
X171323095Y-64984142D02*
X171370714Y-65079380D01*
X171370714Y-65079380D02*
X171418333Y-65127000D01*
X171418333Y-65127000D02*
X171513571Y-65174619D01*
X171513571Y-65174619D02*
X171704047Y-65174619D01*
X171704047Y-65174619D02*
X171799285Y-65127000D01*
X171799285Y-65127000D02*
X171846904Y-65079380D01*
X171846904Y-65079380D02*
X171894523Y-64984142D01*
X171894523Y-64984142D02*
X171894523Y-64746047D01*
X171894523Y-64746047D02*
X171846904Y-64650809D01*
X171846904Y-64650809D02*
X171799285Y-64603190D01*
X171799285Y-64603190D02*
X171704047Y-64555571D01*
X171704047Y-64555571D02*
X171513571Y-64555571D01*
X171513571Y-64555571D02*
X171418333Y-64603190D01*
X171418333Y-64603190D02*
X171370714Y-64650809D01*
X171370714Y-64650809D02*
X171323095Y-64746047D01*
X168942142Y-46442238D02*
X168846904Y-46394619D01*
X168846904Y-46394619D02*
X168704047Y-46394619D01*
X168704047Y-46394619D02*
X168561190Y-46442238D01*
X168561190Y-46442238D02*
X168465952Y-46537476D01*
X168465952Y-46537476D02*
X168418333Y-46632714D01*
X168418333Y-46632714D02*
X168370714Y-46823190D01*
X168370714Y-46823190D02*
X168370714Y-46966047D01*
X168370714Y-46966047D02*
X168418333Y-47156523D01*
X168418333Y-47156523D02*
X168465952Y-47251761D01*
X168465952Y-47251761D02*
X168561190Y-47347000D01*
X168561190Y-47347000D02*
X168704047Y-47394619D01*
X168704047Y-47394619D02*
X168799285Y-47394619D01*
X168799285Y-47394619D02*
X168942142Y-47347000D01*
X168942142Y-47347000D02*
X168989761Y-47299380D01*
X168989761Y-47299380D02*
X168989761Y-46966047D01*
X168989761Y-46966047D02*
X168799285Y-46966047D01*
X169418333Y-47394619D02*
X169418333Y-46394619D01*
X169418333Y-46394619D02*
X169799285Y-46394619D01*
X169799285Y-46394619D02*
X169894523Y-46442238D01*
X169894523Y-46442238D02*
X169942142Y-46489857D01*
X169942142Y-46489857D02*
X169989761Y-46585095D01*
X169989761Y-46585095D02*
X169989761Y-46727952D01*
X169989761Y-46727952D02*
X169942142Y-46823190D01*
X169942142Y-46823190D02*
X169894523Y-46870809D01*
X169894523Y-46870809D02*
X169799285Y-46918428D01*
X169799285Y-46918428D02*
X169418333Y-46918428D01*
X170942142Y-47394619D02*
X170370714Y-47394619D01*
X170656428Y-47394619D02*
X170656428Y-46394619D01*
X170656428Y-46394619D02*
X170561190Y-46537476D01*
X170561190Y-46537476D02*
X170465952Y-46632714D01*
X170465952Y-46632714D02*
X170370714Y-46680333D01*
X171513571Y-46823190D02*
X171418333Y-46775571D01*
X171418333Y-46775571D02*
X171370714Y-46727952D01*
X171370714Y-46727952D02*
X171323095Y-46632714D01*
X171323095Y-46632714D02*
X171323095Y-46585095D01*
X171323095Y-46585095D02*
X171370714Y-46489857D01*
X171370714Y-46489857D02*
X171418333Y-46442238D01*
X171418333Y-46442238D02*
X171513571Y-46394619D01*
X171513571Y-46394619D02*
X171704047Y-46394619D01*
X171704047Y-46394619D02*
X171799285Y-46442238D01*
X171799285Y-46442238D02*
X171846904Y-46489857D01*
X171846904Y-46489857D02*
X171894523Y-46585095D01*
X171894523Y-46585095D02*
X171894523Y-46632714D01*
X171894523Y-46632714D02*
X171846904Y-46727952D01*
X171846904Y-46727952D02*
X171799285Y-46775571D01*
X171799285Y-46775571D02*
X171704047Y-46823190D01*
X171704047Y-46823190D02*
X171513571Y-46823190D01*
X171513571Y-46823190D02*
X171418333Y-46870809D01*
X171418333Y-46870809D02*
X171370714Y-46918428D01*
X171370714Y-46918428D02*
X171323095Y-47013666D01*
X171323095Y-47013666D02*
X171323095Y-47204142D01*
X171323095Y-47204142D02*
X171370714Y-47299380D01*
X171370714Y-47299380D02*
X171418333Y-47347000D01*
X171418333Y-47347000D02*
X171513571Y-47394619D01*
X171513571Y-47394619D02*
X171704047Y-47394619D01*
X171704047Y-47394619D02*
X171799285Y-47347000D01*
X171799285Y-47347000D02*
X171846904Y-47299380D01*
X171846904Y-47299380D02*
X171894523Y-47204142D01*
X171894523Y-47204142D02*
X171894523Y-47013666D01*
X171894523Y-47013666D02*
X171846904Y-46918428D01*
X171846904Y-46918428D02*
X171799285Y-46870809D01*
X171799285Y-46870809D02*
X171704047Y-46823190D01*
X168323095Y-87034619D02*
X168656428Y-88034619D01*
X168656428Y-88034619D02*
X168989761Y-87034619D01*
X169656428Y-87510809D02*
X169799285Y-87558428D01*
X169799285Y-87558428D02*
X169846904Y-87606047D01*
X169846904Y-87606047D02*
X169894523Y-87701285D01*
X169894523Y-87701285D02*
X169894523Y-87844142D01*
X169894523Y-87844142D02*
X169846904Y-87939380D01*
X169846904Y-87939380D02*
X169799285Y-87987000D01*
X169799285Y-87987000D02*
X169704047Y-88034619D01*
X169704047Y-88034619D02*
X169323095Y-88034619D01*
X169323095Y-88034619D02*
X169323095Y-87034619D01*
X169323095Y-87034619D02*
X169656428Y-87034619D01*
X169656428Y-87034619D02*
X169751666Y-87082238D01*
X169751666Y-87082238D02*
X169799285Y-87129857D01*
X169799285Y-87129857D02*
X169846904Y-87225095D01*
X169846904Y-87225095D02*
X169846904Y-87320333D01*
X169846904Y-87320333D02*
X169799285Y-87415571D01*
X169799285Y-87415571D02*
X169751666Y-87463190D01*
X169751666Y-87463190D02*
X169656428Y-87510809D01*
X169656428Y-87510809D02*
X169323095Y-87510809D01*
X170323095Y-87034619D02*
X170323095Y-87844142D01*
X170323095Y-87844142D02*
X170370714Y-87939380D01*
X170370714Y-87939380D02*
X170418333Y-87987000D01*
X170418333Y-87987000D02*
X170513571Y-88034619D01*
X170513571Y-88034619D02*
X170704047Y-88034619D01*
X170704047Y-88034619D02*
X170799285Y-87987000D01*
X170799285Y-87987000D02*
X170846904Y-87939380D01*
X170846904Y-87939380D02*
X170894523Y-87844142D01*
X170894523Y-87844142D02*
X170894523Y-87034619D01*
X171323095Y-87987000D02*
X171465952Y-88034619D01*
X171465952Y-88034619D02*
X171704047Y-88034619D01*
X171704047Y-88034619D02*
X171799285Y-87987000D01*
X171799285Y-87987000D02*
X171846904Y-87939380D01*
X171846904Y-87939380D02*
X171894523Y-87844142D01*
X171894523Y-87844142D02*
X171894523Y-87748904D01*
X171894523Y-87748904D02*
X171846904Y-87653666D01*
X171846904Y-87653666D02*
X171799285Y-87606047D01*
X171799285Y-87606047D02*
X171704047Y-87558428D01*
X171704047Y-87558428D02*
X171513571Y-87510809D01*
X171513571Y-87510809D02*
X171418333Y-87463190D01*
X171418333Y-87463190D02*
X171370714Y-87415571D01*
X171370714Y-87415571D02*
X171323095Y-87320333D01*
X171323095Y-87320333D02*
X171323095Y-87225095D01*
X171323095Y-87225095D02*
X171370714Y-87129857D01*
X171370714Y-87129857D02*
X171418333Y-87082238D01*
X171418333Y-87082238D02*
X171513571Y-87034619D01*
X171513571Y-87034619D02*
X171751666Y-87034619D01*
X171751666Y-87034619D02*
X171894523Y-87082238D01*
X168942142Y-41362238D02*
X168846904Y-41314619D01*
X168846904Y-41314619D02*
X168704047Y-41314619D01*
X168704047Y-41314619D02*
X168561190Y-41362238D01*
X168561190Y-41362238D02*
X168465952Y-41457476D01*
X168465952Y-41457476D02*
X168418333Y-41552714D01*
X168418333Y-41552714D02*
X168370714Y-41743190D01*
X168370714Y-41743190D02*
X168370714Y-41886047D01*
X168370714Y-41886047D02*
X168418333Y-42076523D01*
X168418333Y-42076523D02*
X168465952Y-42171761D01*
X168465952Y-42171761D02*
X168561190Y-42267000D01*
X168561190Y-42267000D02*
X168704047Y-42314619D01*
X168704047Y-42314619D02*
X168799285Y-42314619D01*
X168799285Y-42314619D02*
X168942142Y-42267000D01*
X168942142Y-42267000D02*
X168989761Y-42219380D01*
X168989761Y-42219380D02*
X168989761Y-41886047D01*
X168989761Y-41886047D02*
X168799285Y-41886047D01*
X169418333Y-42314619D02*
X169418333Y-41314619D01*
X169418333Y-41314619D02*
X169799285Y-41314619D01*
X169799285Y-41314619D02*
X169894523Y-41362238D01*
X169894523Y-41362238D02*
X169942142Y-41409857D01*
X169942142Y-41409857D02*
X169989761Y-41505095D01*
X169989761Y-41505095D02*
X169989761Y-41647952D01*
X169989761Y-41647952D02*
X169942142Y-41743190D01*
X169942142Y-41743190D02*
X169894523Y-41790809D01*
X169894523Y-41790809D02*
X169799285Y-41838428D01*
X169799285Y-41838428D02*
X169418333Y-41838428D01*
X170942142Y-42314619D02*
X170370714Y-42314619D01*
X170656428Y-42314619D02*
X170656428Y-41314619D01*
X170656428Y-41314619D02*
X170561190Y-41457476D01*
X170561190Y-41457476D02*
X170465952Y-41552714D01*
X170465952Y-41552714D02*
X170370714Y-41600333D01*
X171275476Y-41314619D02*
X171942142Y-41314619D01*
X171942142Y-41314619D02*
X171513571Y-42314619D01*
X169799285Y-56602238D02*
X169704047Y-56554619D01*
X169704047Y-56554619D02*
X169561190Y-56554619D01*
X169561190Y-56554619D02*
X169418333Y-56602238D01*
X169418333Y-56602238D02*
X169323095Y-56697476D01*
X169323095Y-56697476D02*
X169275476Y-56792714D01*
X169275476Y-56792714D02*
X169227857Y-56983190D01*
X169227857Y-56983190D02*
X169227857Y-57126047D01*
X169227857Y-57126047D02*
X169275476Y-57316523D01*
X169275476Y-57316523D02*
X169323095Y-57411761D01*
X169323095Y-57411761D02*
X169418333Y-57507000D01*
X169418333Y-57507000D02*
X169561190Y-57554619D01*
X169561190Y-57554619D02*
X169656428Y-57554619D01*
X169656428Y-57554619D02*
X169799285Y-57507000D01*
X169799285Y-57507000D02*
X169846904Y-57459380D01*
X169846904Y-57459380D02*
X169846904Y-57126047D01*
X169846904Y-57126047D02*
X169656428Y-57126047D01*
X170275476Y-57554619D02*
X170275476Y-56554619D01*
X170275476Y-56554619D02*
X170846904Y-57554619D01*
X170846904Y-57554619D02*
X170846904Y-56554619D01*
X171323095Y-57554619D02*
X171323095Y-56554619D01*
X171323095Y-56554619D02*
X171561190Y-56554619D01*
X171561190Y-56554619D02*
X171704047Y-56602238D01*
X171704047Y-56602238D02*
X171799285Y-56697476D01*
X171799285Y-56697476D02*
X171846904Y-56792714D01*
X171846904Y-56792714D02*
X171894523Y-56983190D01*
X171894523Y-56983190D02*
X171894523Y-57126047D01*
X171894523Y-57126047D02*
X171846904Y-57316523D01*
X171846904Y-57316523D02*
X171799285Y-57411761D01*
X171799285Y-57411761D02*
X171704047Y-57507000D01*
X171704047Y-57507000D02*
X171561190Y-57554619D01*
X171561190Y-57554619D02*
X171323095Y-57554619D01*
X195324904Y-56660238D02*
X195229666Y-56612619D01*
X195229666Y-56612619D02*
X195086809Y-56612619D01*
X195086809Y-56612619D02*
X194943952Y-56660238D01*
X194943952Y-56660238D02*
X194848714Y-56755476D01*
X194848714Y-56755476D02*
X194801095Y-56850714D01*
X194801095Y-56850714D02*
X194753476Y-57041190D01*
X194753476Y-57041190D02*
X194753476Y-57184047D01*
X194753476Y-57184047D02*
X194801095Y-57374523D01*
X194801095Y-57374523D02*
X194848714Y-57469761D01*
X194848714Y-57469761D02*
X194943952Y-57565000D01*
X194943952Y-57565000D02*
X195086809Y-57612619D01*
X195086809Y-57612619D02*
X195182047Y-57612619D01*
X195182047Y-57612619D02*
X195324904Y-57565000D01*
X195324904Y-57565000D02*
X195372523Y-57517380D01*
X195372523Y-57517380D02*
X195372523Y-57184047D01*
X195372523Y-57184047D02*
X195182047Y-57184047D01*
X195801095Y-57612619D02*
X195801095Y-56612619D01*
X195801095Y-56612619D02*
X196372523Y-57612619D01*
X196372523Y-57612619D02*
X196372523Y-56612619D01*
X196848714Y-57612619D02*
X196848714Y-56612619D01*
X196848714Y-56612619D02*
X197086809Y-56612619D01*
X197086809Y-56612619D02*
X197229666Y-56660238D01*
X197229666Y-56660238D02*
X197324904Y-56755476D01*
X197324904Y-56755476D02*
X197372523Y-56850714D01*
X197372523Y-56850714D02*
X197420142Y-57041190D01*
X197420142Y-57041190D02*
X197420142Y-57184047D01*
X197420142Y-57184047D02*
X197372523Y-57374523D01*
X197372523Y-57374523D02*
X197324904Y-57469761D01*
X197324904Y-57469761D02*
X197229666Y-57565000D01*
X197229666Y-57565000D02*
X197086809Y-57612619D01*
X197086809Y-57612619D02*
X196848714Y-57612619D01*
X168942142Y-59142238D02*
X168846904Y-59094619D01*
X168846904Y-59094619D02*
X168704047Y-59094619D01*
X168704047Y-59094619D02*
X168561190Y-59142238D01*
X168561190Y-59142238D02*
X168465952Y-59237476D01*
X168465952Y-59237476D02*
X168418333Y-59332714D01*
X168418333Y-59332714D02*
X168370714Y-59523190D01*
X168370714Y-59523190D02*
X168370714Y-59666047D01*
X168370714Y-59666047D02*
X168418333Y-59856523D01*
X168418333Y-59856523D02*
X168465952Y-59951761D01*
X168465952Y-59951761D02*
X168561190Y-60047000D01*
X168561190Y-60047000D02*
X168704047Y-60094619D01*
X168704047Y-60094619D02*
X168799285Y-60094619D01*
X168799285Y-60094619D02*
X168942142Y-60047000D01*
X168942142Y-60047000D02*
X168989761Y-59999380D01*
X168989761Y-59999380D02*
X168989761Y-59666047D01*
X168989761Y-59666047D02*
X168799285Y-59666047D01*
X169418333Y-60094619D02*
X169418333Y-59094619D01*
X169418333Y-59094619D02*
X169799285Y-59094619D01*
X169799285Y-59094619D02*
X169894523Y-59142238D01*
X169894523Y-59142238D02*
X169942142Y-59189857D01*
X169942142Y-59189857D02*
X169989761Y-59285095D01*
X169989761Y-59285095D02*
X169989761Y-59427952D01*
X169989761Y-59427952D02*
X169942142Y-59523190D01*
X169942142Y-59523190D02*
X169894523Y-59570809D01*
X169894523Y-59570809D02*
X169799285Y-59618428D01*
X169799285Y-59618428D02*
X169418333Y-59618428D01*
X170370714Y-59189857D02*
X170418333Y-59142238D01*
X170418333Y-59142238D02*
X170513571Y-59094619D01*
X170513571Y-59094619D02*
X170751666Y-59094619D01*
X170751666Y-59094619D02*
X170846904Y-59142238D01*
X170846904Y-59142238D02*
X170894523Y-59189857D01*
X170894523Y-59189857D02*
X170942142Y-59285095D01*
X170942142Y-59285095D02*
X170942142Y-59380333D01*
X170942142Y-59380333D02*
X170894523Y-59523190D01*
X170894523Y-59523190D02*
X170323095Y-60094619D01*
X170323095Y-60094619D02*
X170942142Y-60094619D01*
X171323095Y-59189857D02*
X171370714Y-59142238D01*
X171370714Y-59142238D02*
X171465952Y-59094619D01*
X171465952Y-59094619D02*
X171704047Y-59094619D01*
X171704047Y-59094619D02*
X171799285Y-59142238D01*
X171799285Y-59142238D02*
X171846904Y-59189857D01*
X171846904Y-59189857D02*
X171894523Y-59285095D01*
X171894523Y-59285095D02*
X171894523Y-59380333D01*
X171894523Y-59380333D02*
X171846904Y-59523190D01*
X171846904Y-59523190D02*
X171275476Y-60094619D01*
X171275476Y-60094619D02*
X171894523Y-60094619D01*
X195324904Y-87140238D02*
X195229666Y-87092619D01*
X195229666Y-87092619D02*
X195086809Y-87092619D01*
X195086809Y-87092619D02*
X194943952Y-87140238D01*
X194943952Y-87140238D02*
X194848714Y-87235476D01*
X194848714Y-87235476D02*
X194801095Y-87330714D01*
X194801095Y-87330714D02*
X194753476Y-87521190D01*
X194753476Y-87521190D02*
X194753476Y-87664047D01*
X194753476Y-87664047D02*
X194801095Y-87854523D01*
X194801095Y-87854523D02*
X194848714Y-87949761D01*
X194848714Y-87949761D02*
X194943952Y-88045000D01*
X194943952Y-88045000D02*
X195086809Y-88092619D01*
X195086809Y-88092619D02*
X195182047Y-88092619D01*
X195182047Y-88092619D02*
X195324904Y-88045000D01*
X195324904Y-88045000D02*
X195372523Y-87997380D01*
X195372523Y-87997380D02*
X195372523Y-87664047D01*
X195372523Y-87664047D02*
X195182047Y-87664047D01*
X195801095Y-88092619D02*
X195801095Y-87092619D01*
X195801095Y-87092619D02*
X196182047Y-87092619D01*
X196182047Y-87092619D02*
X196277285Y-87140238D01*
X196277285Y-87140238D02*
X196324904Y-87187857D01*
X196324904Y-87187857D02*
X196372523Y-87283095D01*
X196372523Y-87283095D02*
X196372523Y-87425952D01*
X196372523Y-87425952D02*
X196324904Y-87521190D01*
X196324904Y-87521190D02*
X196277285Y-87568809D01*
X196277285Y-87568809D02*
X196182047Y-87616428D01*
X196182047Y-87616428D02*
X195801095Y-87616428D01*
X196991571Y-87092619D02*
X197086809Y-87092619D01*
X197086809Y-87092619D02*
X197182047Y-87140238D01*
X197182047Y-87140238D02*
X197229666Y-87187857D01*
X197229666Y-87187857D02*
X197277285Y-87283095D01*
X197277285Y-87283095D02*
X197324904Y-87473571D01*
X197324904Y-87473571D02*
X197324904Y-87711666D01*
X197324904Y-87711666D02*
X197277285Y-87902142D01*
X197277285Y-87902142D02*
X197229666Y-87997380D01*
X197229666Y-87997380D02*
X197182047Y-88045000D01*
X197182047Y-88045000D02*
X197086809Y-88092619D01*
X197086809Y-88092619D02*
X196991571Y-88092619D01*
X196991571Y-88092619D02*
X196896333Y-88045000D01*
X196896333Y-88045000D02*
X196848714Y-87997380D01*
X196848714Y-87997380D02*
X196801095Y-87902142D01*
X196801095Y-87902142D02*
X196753476Y-87711666D01*
X196753476Y-87711666D02*
X196753476Y-87473571D01*
X196753476Y-87473571D02*
X196801095Y-87283095D01*
X196801095Y-87283095D02*
X196848714Y-87187857D01*
X196848714Y-87187857D02*
X196896333Y-87140238D01*
X196896333Y-87140238D02*
X196991571Y-87092619D01*
X168942142Y-48982238D02*
X168846904Y-48934619D01*
X168846904Y-48934619D02*
X168704047Y-48934619D01*
X168704047Y-48934619D02*
X168561190Y-48982238D01*
X168561190Y-48982238D02*
X168465952Y-49077476D01*
X168465952Y-49077476D02*
X168418333Y-49172714D01*
X168418333Y-49172714D02*
X168370714Y-49363190D01*
X168370714Y-49363190D02*
X168370714Y-49506047D01*
X168370714Y-49506047D02*
X168418333Y-49696523D01*
X168418333Y-49696523D02*
X168465952Y-49791761D01*
X168465952Y-49791761D02*
X168561190Y-49887000D01*
X168561190Y-49887000D02*
X168704047Y-49934619D01*
X168704047Y-49934619D02*
X168799285Y-49934619D01*
X168799285Y-49934619D02*
X168942142Y-49887000D01*
X168942142Y-49887000D02*
X168989761Y-49839380D01*
X168989761Y-49839380D02*
X168989761Y-49506047D01*
X168989761Y-49506047D02*
X168799285Y-49506047D01*
X169418333Y-49934619D02*
X169418333Y-48934619D01*
X169418333Y-48934619D02*
X169799285Y-48934619D01*
X169799285Y-48934619D02*
X169894523Y-48982238D01*
X169894523Y-48982238D02*
X169942142Y-49029857D01*
X169942142Y-49029857D02*
X169989761Y-49125095D01*
X169989761Y-49125095D02*
X169989761Y-49267952D01*
X169989761Y-49267952D02*
X169942142Y-49363190D01*
X169942142Y-49363190D02*
X169894523Y-49410809D01*
X169894523Y-49410809D02*
X169799285Y-49458428D01*
X169799285Y-49458428D02*
X169418333Y-49458428D01*
X170942142Y-49934619D02*
X170370714Y-49934619D01*
X170656428Y-49934619D02*
X170656428Y-48934619D01*
X170656428Y-48934619D02*
X170561190Y-49077476D01*
X170561190Y-49077476D02*
X170465952Y-49172714D01*
X170465952Y-49172714D02*
X170370714Y-49220333D01*
X171418333Y-49934619D02*
X171608809Y-49934619D01*
X171608809Y-49934619D02*
X171704047Y-49887000D01*
X171704047Y-49887000D02*
X171751666Y-49839380D01*
X171751666Y-49839380D02*
X171846904Y-49696523D01*
X171846904Y-49696523D02*
X171894523Y-49506047D01*
X171894523Y-49506047D02*
X171894523Y-49125095D01*
X171894523Y-49125095D02*
X171846904Y-49029857D01*
X171846904Y-49029857D02*
X171799285Y-48982238D01*
X171799285Y-48982238D02*
X171704047Y-48934619D01*
X171704047Y-48934619D02*
X171513571Y-48934619D01*
X171513571Y-48934619D02*
X171418333Y-48982238D01*
X171418333Y-48982238D02*
X171370714Y-49029857D01*
X171370714Y-49029857D02*
X171323095Y-49125095D01*
X171323095Y-49125095D02*
X171323095Y-49363190D01*
X171323095Y-49363190D02*
X171370714Y-49458428D01*
X171370714Y-49458428D02*
X171418333Y-49506047D01*
X171418333Y-49506047D02*
X171513571Y-49553666D01*
X171513571Y-49553666D02*
X171704047Y-49553666D01*
X171704047Y-49553666D02*
X171799285Y-49506047D01*
X171799285Y-49506047D02*
X171846904Y-49458428D01*
X171846904Y-49458428D02*
X171894523Y-49363190D01*
X195324904Y-64280238D02*
X195229666Y-64232619D01*
X195229666Y-64232619D02*
X195086809Y-64232619D01*
X195086809Y-64232619D02*
X194943952Y-64280238D01*
X194943952Y-64280238D02*
X194848714Y-64375476D01*
X194848714Y-64375476D02*
X194801095Y-64470714D01*
X194801095Y-64470714D02*
X194753476Y-64661190D01*
X194753476Y-64661190D02*
X194753476Y-64804047D01*
X194753476Y-64804047D02*
X194801095Y-64994523D01*
X194801095Y-64994523D02*
X194848714Y-65089761D01*
X194848714Y-65089761D02*
X194943952Y-65185000D01*
X194943952Y-65185000D02*
X195086809Y-65232619D01*
X195086809Y-65232619D02*
X195182047Y-65232619D01*
X195182047Y-65232619D02*
X195324904Y-65185000D01*
X195324904Y-65185000D02*
X195372523Y-65137380D01*
X195372523Y-65137380D02*
X195372523Y-64804047D01*
X195372523Y-64804047D02*
X195182047Y-64804047D01*
X195801095Y-65232619D02*
X195801095Y-64232619D01*
X195801095Y-64232619D02*
X196182047Y-64232619D01*
X196182047Y-64232619D02*
X196277285Y-64280238D01*
X196277285Y-64280238D02*
X196324904Y-64327857D01*
X196324904Y-64327857D02*
X196372523Y-64423095D01*
X196372523Y-64423095D02*
X196372523Y-64565952D01*
X196372523Y-64565952D02*
X196324904Y-64661190D01*
X196324904Y-64661190D02*
X196277285Y-64708809D01*
X196277285Y-64708809D02*
X196182047Y-64756428D01*
X196182047Y-64756428D02*
X195801095Y-64756428D01*
X196705857Y-64232619D02*
X197372523Y-64232619D01*
X197372523Y-64232619D02*
X196943952Y-65232619D01*
X168942142Y-66762238D02*
X168846904Y-66714619D01*
X168846904Y-66714619D02*
X168704047Y-66714619D01*
X168704047Y-66714619D02*
X168561190Y-66762238D01*
X168561190Y-66762238D02*
X168465952Y-66857476D01*
X168465952Y-66857476D02*
X168418333Y-66952714D01*
X168418333Y-66952714D02*
X168370714Y-67143190D01*
X168370714Y-67143190D02*
X168370714Y-67286047D01*
X168370714Y-67286047D02*
X168418333Y-67476523D01*
X168418333Y-67476523D02*
X168465952Y-67571761D01*
X168465952Y-67571761D02*
X168561190Y-67667000D01*
X168561190Y-67667000D02*
X168704047Y-67714619D01*
X168704047Y-67714619D02*
X168799285Y-67714619D01*
X168799285Y-67714619D02*
X168942142Y-67667000D01*
X168942142Y-67667000D02*
X168989761Y-67619380D01*
X168989761Y-67619380D02*
X168989761Y-67286047D01*
X168989761Y-67286047D02*
X168799285Y-67286047D01*
X169418333Y-67714619D02*
X169418333Y-66714619D01*
X169418333Y-66714619D02*
X169799285Y-66714619D01*
X169799285Y-66714619D02*
X169894523Y-66762238D01*
X169894523Y-66762238D02*
X169942142Y-66809857D01*
X169942142Y-66809857D02*
X169989761Y-66905095D01*
X169989761Y-66905095D02*
X169989761Y-67047952D01*
X169989761Y-67047952D02*
X169942142Y-67143190D01*
X169942142Y-67143190D02*
X169894523Y-67190809D01*
X169894523Y-67190809D02*
X169799285Y-67238428D01*
X169799285Y-67238428D02*
X169418333Y-67238428D01*
X170370714Y-66809857D02*
X170418333Y-66762238D01*
X170418333Y-66762238D02*
X170513571Y-66714619D01*
X170513571Y-66714619D02*
X170751666Y-66714619D01*
X170751666Y-66714619D02*
X170846904Y-66762238D01*
X170846904Y-66762238D02*
X170894523Y-66809857D01*
X170894523Y-66809857D02*
X170942142Y-66905095D01*
X170942142Y-66905095D02*
X170942142Y-67000333D01*
X170942142Y-67000333D02*
X170894523Y-67143190D01*
X170894523Y-67143190D02*
X170323095Y-67714619D01*
X170323095Y-67714619D02*
X170942142Y-67714619D01*
X171275476Y-66714619D02*
X171942142Y-66714619D01*
X171942142Y-66714619D02*
X171513571Y-67714619D01*
X169799285Y-62634619D02*
X169465952Y-62158428D01*
X169227857Y-62634619D02*
X169227857Y-61634619D01*
X169227857Y-61634619D02*
X169608809Y-61634619D01*
X169608809Y-61634619D02*
X169704047Y-61682238D01*
X169704047Y-61682238D02*
X169751666Y-61729857D01*
X169751666Y-61729857D02*
X169799285Y-61825095D01*
X169799285Y-61825095D02*
X169799285Y-61967952D01*
X169799285Y-61967952D02*
X169751666Y-62063190D01*
X169751666Y-62063190D02*
X169704047Y-62110809D01*
X169704047Y-62110809D02*
X169608809Y-62158428D01*
X169608809Y-62158428D02*
X169227857Y-62158428D01*
X170227857Y-61634619D02*
X170227857Y-62444142D01*
X170227857Y-62444142D02*
X170275476Y-62539380D01*
X170275476Y-62539380D02*
X170323095Y-62587000D01*
X170323095Y-62587000D02*
X170418333Y-62634619D01*
X170418333Y-62634619D02*
X170608809Y-62634619D01*
X170608809Y-62634619D02*
X170704047Y-62587000D01*
X170704047Y-62587000D02*
X170751666Y-62539380D01*
X170751666Y-62539380D02*
X170799285Y-62444142D01*
X170799285Y-62444142D02*
X170799285Y-61634619D01*
X171275476Y-62634619D02*
X171275476Y-61634619D01*
X171275476Y-61634619D02*
X171846904Y-62634619D01*
X171846904Y-62634619D02*
X171846904Y-61634619D01*
X195324904Y-59200238D02*
X195229666Y-59152619D01*
X195229666Y-59152619D02*
X195086809Y-59152619D01*
X195086809Y-59152619D02*
X194943952Y-59200238D01*
X194943952Y-59200238D02*
X194848714Y-59295476D01*
X194848714Y-59295476D02*
X194801095Y-59390714D01*
X194801095Y-59390714D02*
X194753476Y-59581190D01*
X194753476Y-59581190D02*
X194753476Y-59724047D01*
X194753476Y-59724047D02*
X194801095Y-59914523D01*
X194801095Y-59914523D02*
X194848714Y-60009761D01*
X194848714Y-60009761D02*
X194943952Y-60105000D01*
X194943952Y-60105000D02*
X195086809Y-60152619D01*
X195086809Y-60152619D02*
X195182047Y-60152619D01*
X195182047Y-60152619D02*
X195324904Y-60105000D01*
X195324904Y-60105000D02*
X195372523Y-60057380D01*
X195372523Y-60057380D02*
X195372523Y-59724047D01*
X195372523Y-59724047D02*
X195182047Y-59724047D01*
X195801095Y-60152619D02*
X195801095Y-59152619D01*
X195801095Y-59152619D02*
X196182047Y-59152619D01*
X196182047Y-59152619D02*
X196277285Y-59200238D01*
X196277285Y-59200238D02*
X196324904Y-59247857D01*
X196324904Y-59247857D02*
X196372523Y-59343095D01*
X196372523Y-59343095D02*
X196372523Y-59485952D01*
X196372523Y-59485952D02*
X196324904Y-59581190D01*
X196324904Y-59581190D02*
X196277285Y-59628809D01*
X196277285Y-59628809D02*
X196182047Y-59676428D01*
X196182047Y-59676428D02*
X195801095Y-59676428D01*
X196848714Y-60152619D02*
X197039190Y-60152619D01*
X197039190Y-60152619D02*
X197134428Y-60105000D01*
X197134428Y-60105000D02*
X197182047Y-60057380D01*
X197182047Y-60057380D02*
X197277285Y-59914523D01*
X197277285Y-59914523D02*
X197324904Y-59724047D01*
X197324904Y-59724047D02*
X197324904Y-59343095D01*
X197324904Y-59343095D02*
X197277285Y-59247857D01*
X197277285Y-59247857D02*
X197229666Y-59200238D01*
X197229666Y-59200238D02*
X197134428Y-59152619D01*
X197134428Y-59152619D02*
X196943952Y-59152619D01*
X196943952Y-59152619D02*
X196848714Y-59200238D01*
X196848714Y-59200238D02*
X196801095Y-59247857D01*
X196801095Y-59247857D02*
X196753476Y-59343095D01*
X196753476Y-59343095D02*
X196753476Y-59581190D01*
X196753476Y-59581190D02*
X196801095Y-59676428D01*
X196801095Y-59676428D02*
X196848714Y-59724047D01*
X196848714Y-59724047D02*
X196943952Y-59771666D01*
X196943952Y-59771666D02*
X197134428Y-59771666D01*
X197134428Y-59771666D02*
X197229666Y-59724047D01*
X197229666Y-59724047D02*
X197277285Y-59676428D01*
X197277285Y-59676428D02*
X197324904Y-59581190D01*
X195324904Y-79520238D02*
X195229666Y-79472619D01*
X195229666Y-79472619D02*
X195086809Y-79472619D01*
X195086809Y-79472619D02*
X194943952Y-79520238D01*
X194943952Y-79520238D02*
X194848714Y-79615476D01*
X194848714Y-79615476D02*
X194801095Y-79710714D01*
X194801095Y-79710714D02*
X194753476Y-79901190D01*
X194753476Y-79901190D02*
X194753476Y-80044047D01*
X194753476Y-80044047D02*
X194801095Y-80234523D01*
X194801095Y-80234523D02*
X194848714Y-80329761D01*
X194848714Y-80329761D02*
X194943952Y-80425000D01*
X194943952Y-80425000D02*
X195086809Y-80472619D01*
X195086809Y-80472619D02*
X195182047Y-80472619D01*
X195182047Y-80472619D02*
X195324904Y-80425000D01*
X195324904Y-80425000D02*
X195372523Y-80377380D01*
X195372523Y-80377380D02*
X195372523Y-80044047D01*
X195372523Y-80044047D02*
X195182047Y-80044047D01*
X195801095Y-80472619D02*
X195801095Y-79472619D01*
X195801095Y-79472619D02*
X196182047Y-79472619D01*
X196182047Y-79472619D02*
X196277285Y-79520238D01*
X196277285Y-79520238D02*
X196324904Y-79567857D01*
X196324904Y-79567857D02*
X196372523Y-79663095D01*
X196372523Y-79663095D02*
X196372523Y-79805952D01*
X196372523Y-79805952D02*
X196324904Y-79901190D01*
X196324904Y-79901190D02*
X196277285Y-79948809D01*
X196277285Y-79948809D02*
X196182047Y-79996428D01*
X196182047Y-79996428D02*
X195801095Y-79996428D01*
X196753476Y-79567857D02*
X196801095Y-79520238D01*
X196801095Y-79520238D02*
X196896333Y-79472619D01*
X196896333Y-79472619D02*
X197134428Y-79472619D01*
X197134428Y-79472619D02*
X197229666Y-79520238D01*
X197229666Y-79520238D02*
X197277285Y-79567857D01*
X197277285Y-79567857D02*
X197324904Y-79663095D01*
X197324904Y-79663095D02*
X197324904Y-79758333D01*
X197324904Y-79758333D02*
X197277285Y-79901190D01*
X197277285Y-79901190D02*
X196705857Y-80472619D01*
X196705857Y-80472619D02*
X197324904Y-80472619D01*
X165037380Y-75048904D02*
X165513570Y-75048904D01*
X164942142Y-75334619D02*
X165275475Y-74334619D01*
X165275475Y-74334619D02*
X165608808Y-75334619D01*
X165942142Y-75334619D02*
X165942142Y-74334619D01*
X165942142Y-74334619D02*
X166180237Y-74334619D01*
X166180237Y-74334619D02*
X166323094Y-74382238D01*
X166323094Y-74382238D02*
X166418332Y-74477476D01*
X166418332Y-74477476D02*
X166465951Y-74572714D01*
X166465951Y-74572714D02*
X166513570Y-74763190D01*
X166513570Y-74763190D02*
X166513570Y-74906047D01*
X166513570Y-74906047D02*
X166465951Y-75096523D01*
X166465951Y-75096523D02*
X166418332Y-75191761D01*
X166418332Y-75191761D02*
X166323094Y-75287000D01*
X166323094Y-75287000D02*
X166180237Y-75334619D01*
X166180237Y-75334619D02*
X165942142Y-75334619D01*
X167513570Y-75239380D02*
X167465951Y-75287000D01*
X167465951Y-75287000D02*
X167323094Y-75334619D01*
X167323094Y-75334619D02*
X167227856Y-75334619D01*
X167227856Y-75334619D02*
X167084999Y-75287000D01*
X167084999Y-75287000D02*
X166989761Y-75191761D01*
X166989761Y-75191761D02*
X166942142Y-75096523D01*
X166942142Y-75096523D02*
X166894523Y-74906047D01*
X166894523Y-74906047D02*
X166894523Y-74763190D01*
X166894523Y-74763190D02*
X166942142Y-74572714D01*
X166942142Y-74572714D02*
X166989761Y-74477476D01*
X166989761Y-74477476D02*
X167084999Y-74382238D01*
X167084999Y-74382238D02*
X167227856Y-74334619D01*
X167227856Y-74334619D02*
X167323094Y-74334619D01*
X167323094Y-74334619D02*
X167465951Y-74382238D01*
X167465951Y-74382238D02*
X167513570Y-74429857D01*
X167704047Y-75429857D02*
X168465951Y-75429857D01*
X168561190Y-74334619D02*
X168894523Y-75334619D01*
X168894523Y-75334619D02*
X169227856Y-74334619D01*
X170132618Y-75334619D02*
X169799285Y-74858428D01*
X169561190Y-75334619D02*
X169561190Y-74334619D01*
X169561190Y-74334619D02*
X169942142Y-74334619D01*
X169942142Y-74334619D02*
X170037380Y-74382238D01*
X170037380Y-74382238D02*
X170084999Y-74429857D01*
X170084999Y-74429857D02*
X170132618Y-74525095D01*
X170132618Y-74525095D02*
X170132618Y-74667952D01*
X170132618Y-74667952D02*
X170084999Y-74763190D01*
X170084999Y-74763190D02*
X170037380Y-74810809D01*
X170037380Y-74810809D02*
X169942142Y-74858428D01*
X169942142Y-74858428D02*
X169561190Y-74858428D01*
X170561190Y-74810809D02*
X170894523Y-74810809D01*
X171037380Y-75334619D02*
X170561190Y-75334619D01*
X170561190Y-75334619D02*
X170561190Y-74334619D01*
X170561190Y-74334619D02*
X171037380Y-74334619D01*
X171799285Y-74810809D02*
X171465952Y-74810809D01*
X171465952Y-75334619D02*
X171465952Y-74334619D01*
X171465952Y-74334619D02*
X171942142Y-74334619D01*
X166751666Y-79414619D02*
X167370713Y-79414619D01*
X167370713Y-79414619D02*
X167037380Y-79795571D01*
X167037380Y-79795571D02*
X167180237Y-79795571D01*
X167180237Y-79795571D02*
X167275475Y-79843190D01*
X167275475Y-79843190D02*
X167323094Y-79890809D01*
X167323094Y-79890809D02*
X167370713Y-79986047D01*
X167370713Y-79986047D02*
X167370713Y-80224142D01*
X167370713Y-80224142D02*
X167323094Y-80319380D01*
X167323094Y-80319380D02*
X167275475Y-80367000D01*
X167275475Y-80367000D02*
X167180237Y-80414619D01*
X167180237Y-80414619D02*
X166894523Y-80414619D01*
X166894523Y-80414619D02*
X166799285Y-80367000D01*
X166799285Y-80367000D02*
X166751666Y-80319380D01*
X167656428Y-79414619D02*
X167989761Y-80414619D01*
X167989761Y-80414619D02*
X168323094Y-79414619D01*
X168561190Y-79414619D02*
X169180237Y-79414619D01*
X169180237Y-79414619D02*
X168846904Y-79795571D01*
X168846904Y-79795571D02*
X168989761Y-79795571D01*
X168989761Y-79795571D02*
X169084999Y-79843190D01*
X169084999Y-79843190D02*
X169132618Y-79890809D01*
X169132618Y-79890809D02*
X169180237Y-79986047D01*
X169180237Y-79986047D02*
X169180237Y-80224142D01*
X169180237Y-80224142D02*
X169132618Y-80319380D01*
X169132618Y-80319380D02*
X169084999Y-80367000D01*
X169084999Y-80367000D02*
X168989761Y-80414619D01*
X168989761Y-80414619D02*
X168704047Y-80414619D01*
X168704047Y-80414619D02*
X168608809Y-80367000D01*
X168608809Y-80367000D02*
X168561190Y-80319380D01*
X169370714Y-80509857D02*
X170132618Y-80509857D01*
X170370714Y-79890809D02*
X170704047Y-79890809D01*
X170846904Y-80414619D02*
X170370714Y-80414619D01*
X170370714Y-80414619D02*
X170370714Y-79414619D01*
X170370714Y-79414619D02*
X170846904Y-79414619D01*
X171275476Y-80414619D02*
X171275476Y-79414619D01*
X171275476Y-79414619D02*
X171846904Y-80414619D01*
X171846904Y-80414619D02*
X171846904Y-79414619D01*
X169799285Y-69302238D02*
X169704047Y-69254619D01*
X169704047Y-69254619D02*
X169561190Y-69254619D01*
X169561190Y-69254619D02*
X169418333Y-69302238D01*
X169418333Y-69302238D02*
X169323095Y-69397476D01*
X169323095Y-69397476D02*
X169275476Y-69492714D01*
X169275476Y-69492714D02*
X169227857Y-69683190D01*
X169227857Y-69683190D02*
X169227857Y-69826047D01*
X169227857Y-69826047D02*
X169275476Y-70016523D01*
X169275476Y-70016523D02*
X169323095Y-70111761D01*
X169323095Y-70111761D02*
X169418333Y-70207000D01*
X169418333Y-70207000D02*
X169561190Y-70254619D01*
X169561190Y-70254619D02*
X169656428Y-70254619D01*
X169656428Y-70254619D02*
X169799285Y-70207000D01*
X169799285Y-70207000D02*
X169846904Y-70159380D01*
X169846904Y-70159380D02*
X169846904Y-69826047D01*
X169846904Y-69826047D02*
X169656428Y-69826047D01*
X170275476Y-70254619D02*
X170275476Y-69254619D01*
X170275476Y-69254619D02*
X170846904Y-70254619D01*
X170846904Y-70254619D02*
X170846904Y-69254619D01*
X171323095Y-70254619D02*
X171323095Y-69254619D01*
X171323095Y-69254619D02*
X171561190Y-69254619D01*
X171561190Y-69254619D02*
X171704047Y-69302238D01*
X171704047Y-69302238D02*
X171799285Y-69397476D01*
X171799285Y-69397476D02*
X171846904Y-69492714D01*
X171846904Y-69492714D02*
X171894523Y-69683190D01*
X171894523Y-69683190D02*
X171894523Y-69826047D01*
X171894523Y-69826047D02*
X171846904Y-70016523D01*
X171846904Y-70016523D02*
X171799285Y-70111761D01*
X171799285Y-70111761D02*
X171704047Y-70207000D01*
X171704047Y-70207000D02*
X171561190Y-70254619D01*
X171561190Y-70254619D02*
X171323095Y-70254619D01*
X195324904Y-74440238D02*
X195229666Y-74392619D01*
X195229666Y-74392619D02*
X195086809Y-74392619D01*
X195086809Y-74392619D02*
X194943952Y-74440238D01*
X194943952Y-74440238D02*
X194848714Y-74535476D01*
X194848714Y-74535476D02*
X194801095Y-74630714D01*
X194801095Y-74630714D02*
X194753476Y-74821190D01*
X194753476Y-74821190D02*
X194753476Y-74964047D01*
X194753476Y-74964047D02*
X194801095Y-75154523D01*
X194801095Y-75154523D02*
X194848714Y-75249761D01*
X194848714Y-75249761D02*
X194943952Y-75345000D01*
X194943952Y-75345000D02*
X195086809Y-75392619D01*
X195086809Y-75392619D02*
X195182047Y-75392619D01*
X195182047Y-75392619D02*
X195324904Y-75345000D01*
X195324904Y-75345000D02*
X195372523Y-75297380D01*
X195372523Y-75297380D02*
X195372523Y-74964047D01*
X195372523Y-74964047D02*
X195182047Y-74964047D01*
X195801095Y-75392619D02*
X195801095Y-74392619D01*
X195801095Y-74392619D02*
X196182047Y-74392619D01*
X196182047Y-74392619D02*
X196277285Y-74440238D01*
X196277285Y-74440238D02*
X196324904Y-74487857D01*
X196324904Y-74487857D02*
X196372523Y-74583095D01*
X196372523Y-74583095D02*
X196372523Y-74725952D01*
X196372523Y-74725952D02*
X196324904Y-74821190D01*
X196324904Y-74821190D02*
X196277285Y-74868809D01*
X196277285Y-74868809D02*
X196182047Y-74916428D01*
X196182047Y-74916428D02*
X195801095Y-74916428D01*
X197229666Y-74725952D02*
X197229666Y-75392619D01*
X196991571Y-74345000D02*
X196753476Y-75059285D01*
X196753476Y-75059285D02*
X197372523Y-75059285D01*
X195324904Y-51580238D02*
X195229666Y-51532619D01*
X195229666Y-51532619D02*
X195086809Y-51532619D01*
X195086809Y-51532619D02*
X194943952Y-51580238D01*
X194943952Y-51580238D02*
X194848714Y-51675476D01*
X194848714Y-51675476D02*
X194801095Y-51770714D01*
X194801095Y-51770714D02*
X194753476Y-51961190D01*
X194753476Y-51961190D02*
X194753476Y-52104047D01*
X194753476Y-52104047D02*
X194801095Y-52294523D01*
X194801095Y-52294523D02*
X194848714Y-52389761D01*
X194848714Y-52389761D02*
X194943952Y-52485000D01*
X194943952Y-52485000D02*
X195086809Y-52532619D01*
X195086809Y-52532619D02*
X195182047Y-52532619D01*
X195182047Y-52532619D02*
X195324904Y-52485000D01*
X195324904Y-52485000D02*
X195372523Y-52437380D01*
X195372523Y-52437380D02*
X195372523Y-52104047D01*
X195372523Y-52104047D02*
X195182047Y-52104047D01*
X195801095Y-52532619D02*
X195801095Y-51532619D01*
X195801095Y-51532619D02*
X196182047Y-51532619D01*
X196182047Y-51532619D02*
X196277285Y-51580238D01*
X196277285Y-51580238D02*
X196324904Y-51627857D01*
X196324904Y-51627857D02*
X196372523Y-51723095D01*
X196372523Y-51723095D02*
X196372523Y-51865952D01*
X196372523Y-51865952D02*
X196324904Y-51961190D01*
X196324904Y-51961190D02*
X196277285Y-52008809D01*
X196277285Y-52008809D02*
X196182047Y-52056428D01*
X196182047Y-52056428D02*
X195801095Y-52056428D01*
X197324904Y-52532619D02*
X196753476Y-52532619D01*
X197039190Y-52532619D02*
X197039190Y-51532619D01*
X197039190Y-51532619D02*
X196943952Y-51675476D01*
X196943952Y-51675476D02*
X196848714Y-51770714D01*
X196848714Y-51770714D02*
X196753476Y-51818333D01*
X198277285Y-52532619D02*
X197705857Y-52532619D01*
X197991571Y-52532619D02*
X197991571Y-51532619D01*
X197991571Y-51532619D02*
X197896333Y-51675476D01*
X197896333Y-51675476D02*
X197801095Y-51770714D01*
X197801095Y-51770714D02*
X197705857Y-51818333D01*
X168942142Y-51522238D02*
X168846904Y-51474619D01*
X168846904Y-51474619D02*
X168704047Y-51474619D01*
X168704047Y-51474619D02*
X168561190Y-51522238D01*
X168561190Y-51522238D02*
X168465952Y-51617476D01*
X168465952Y-51617476D02*
X168418333Y-51712714D01*
X168418333Y-51712714D02*
X168370714Y-51903190D01*
X168370714Y-51903190D02*
X168370714Y-52046047D01*
X168370714Y-52046047D02*
X168418333Y-52236523D01*
X168418333Y-52236523D02*
X168465952Y-52331761D01*
X168465952Y-52331761D02*
X168561190Y-52427000D01*
X168561190Y-52427000D02*
X168704047Y-52474619D01*
X168704047Y-52474619D02*
X168799285Y-52474619D01*
X168799285Y-52474619D02*
X168942142Y-52427000D01*
X168942142Y-52427000D02*
X168989761Y-52379380D01*
X168989761Y-52379380D02*
X168989761Y-52046047D01*
X168989761Y-52046047D02*
X168799285Y-52046047D01*
X169418333Y-52474619D02*
X169418333Y-51474619D01*
X169418333Y-51474619D02*
X169799285Y-51474619D01*
X169799285Y-51474619D02*
X169894523Y-51522238D01*
X169894523Y-51522238D02*
X169942142Y-51569857D01*
X169942142Y-51569857D02*
X169989761Y-51665095D01*
X169989761Y-51665095D02*
X169989761Y-51807952D01*
X169989761Y-51807952D02*
X169942142Y-51903190D01*
X169942142Y-51903190D02*
X169894523Y-51950809D01*
X169894523Y-51950809D02*
X169799285Y-51998428D01*
X169799285Y-51998428D02*
X169418333Y-51998428D01*
X170370714Y-51569857D02*
X170418333Y-51522238D01*
X170418333Y-51522238D02*
X170513571Y-51474619D01*
X170513571Y-51474619D02*
X170751666Y-51474619D01*
X170751666Y-51474619D02*
X170846904Y-51522238D01*
X170846904Y-51522238D02*
X170894523Y-51569857D01*
X170894523Y-51569857D02*
X170942142Y-51665095D01*
X170942142Y-51665095D02*
X170942142Y-51760333D01*
X170942142Y-51760333D02*
X170894523Y-51903190D01*
X170894523Y-51903190D02*
X170323095Y-52474619D01*
X170323095Y-52474619D02*
X170942142Y-52474619D01*
X171561190Y-51474619D02*
X171656428Y-51474619D01*
X171656428Y-51474619D02*
X171751666Y-51522238D01*
X171751666Y-51522238D02*
X171799285Y-51569857D01*
X171799285Y-51569857D02*
X171846904Y-51665095D01*
X171846904Y-51665095D02*
X171894523Y-51855571D01*
X171894523Y-51855571D02*
X171894523Y-52093666D01*
X171894523Y-52093666D02*
X171846904Y-52284142D01*
X171846904Y-52284142D02*
X171799285Y-52379380D01*
X171799285Y-52379380D02*
X171751666Y-52427000D01*
X171751666Y-52427000D02*
X171656428Y-52474619D01*
X171656428Y-52474619D02*
X171561190Y-52474619D01*
X171561190Y-52474619D02*
X171465952Y-52427000D01*
X171465952Y-52427000D02*
X171418333Y-52379380D01*
X171418333Y-52379380D02*
X171370714Y-52284142D01*
X171370714Y-52284142D02*
X171323095Y-52093666D01*
X171323095Y-52093666D02*
X171323095Y-51855571D01*
X171323095Y-51855571D02*
X171370714Y-51665095D01*
X171370714Y-51665095D02*
X171418333Y-51569857D01*
X171418333Y-51569857D02*
X171465952Y-51522238D01*
X171465952Y-51522238D02*
X171561190Y-51474619D01*
X195324904Y-69360238D02*
X195229666Y-69312619D01*
X195229666Y-69312619D02*
X195086809Y-69312619D01*
X195086809Y-69312619D02*
X194943952Y-69360238D01*
X194943952Y-69360238D02*
X194848714Y-69455476D01*
X194848714Y-69455476D02*
X194801095Y-69550714D01*
X194801095Y-69550714D02*
X194753476Y-69741190D01*
X194753476Y-69741190D02*
X194753476Y-69884047D01*
X194753476Y-69884047D02*
X194801095Y-70074523D01*
X194801095Y-70074523D02*
X194848714Y-70169761D01*
X194848714Y-70169761D02*
X194943952Y-70265000D01*
X194943952Y-70265000D02*
X195086809Y-70312619D01*
X195086809Y-70312619D02*
X195182047Y-70312619D01*
X195182047Y-70312619D02*
X195324904Y-70265000D01*
X195324904Y-70265000D02*
X195372523Y-70217380D01*
X195372523Y-70217380D02*
X195372523Y-69884047D01*
X195372523Y-69884047D02*
X195182047Y-69884047D01*
X195801095Y-70312619D02*
X195801095Y-69312619D01*
X195801095Y-69312619D02*
X196372523Y-70312619D01*
X196372523Y-70312619D02*
X196372523Y-69312619D01*
X196848714Y-70312619D02*
X196848714Y-69312619D01*
X196848714Y-69312619D02*
X197086809Y-69312619D01*
X197086809Y-69312619D02*
X197229666Y-69360238D01*
X197229666Y-69360238D02*
X197324904Y-69455476D01*
X197324904Y-69455476D02*
X197372523Y-69550714D01*
X197372523Y-69550714D02*
X197420142Y-69741190D01*
X197420142Y-69741190D02*
X197420142Y-69884047D01*
X197420142Y-69884047D02*
X197372523Y-70074523D01*
X197372523Y-70074523D02*
X197324904Y-70169761D01*
X197324904Y-70169761D02*
X197229666Y-70265000D01*
X197229666Y-70265000D02*
X197086809Y-70312619D01*
X197086809Y-70312619D02*
X196848714Y-70312619D01*
X169465952Y-76874619D02*
X170084999Y-76874619D01*
X170084999Y-76874619D02*
X169751666Y-77255571D01*
X169751666Y-77255571D02*
X169894523Y-77255571D01*
X169894523Y-77255571D02*
X169989761Y-77303190D01*
X169989761Y-77303190D02*
X170037380Y-77350809D01*
X170037380Y-77350809D02*
X170084999Y-77446047D01*
X170084999Y-77446047D02*
X170084999Y-77684142D01*
X170084999Y-77684142D02*
X170037380Y-77779380D01*
X170037380Y-77779380D02*
X169989761Y-77827000D01*
X169989761Y-77827000D02*
X169894523Y-77874619D01*
X169894523Y-77874619D02*
X169608809Y-77874619D01*
X169608809Y-77874619D02*
X169513571Y-77827000D01*
X169513571Y-77827000D02*
X169465952Y-77779380D01*
X170370714Y-76874619D02*
X170704047Y-77874619D01*
X170704047Y-77874619D02*
X171037380Y-76874619D01*
X171275476Y-76874619D02*
X171894523Y-76874619D01*
X171894523Y-76874619D02*
X171561190Y-77255571D01*
X171561190Y-77255571D02*
X171704047Y-77255571D01*
X171704047Y-77255571D02*
X171799285Y-77303190D01*
X171799285Y-77303190D02*
X171846904Y-77350809D01*
X171846904Y-77350809D02*
X171894523Y-77446047D01*
X171894523Y-77446047D02*
X171894523Y-77684142D01*
X171894523Y-77684142D02*
X171846904Y-77779380D01*
X171846904Y-77779380D02*
X171799285Y-77827000D01*
X171799285Y-77827000D02*
X171704047Y-77874619D01*
X171704047Y-77874619D02*
X171418333Y-77874619D01*
X171418333Y-77874619D02*
X171323095Y-77827000D01*
X171323095Y-77827000D02*
X171275476Y-77779380D01*
X195324904Y-71900238D02*
X195229666Y-71852619D01*
X195229666Y-71852619D02*
X195086809Y-71852619D01*
X195086809Y-71852619D02*
X194943952Y-71900238D01*
X194943952Y-71900238D02*
X194848714Y-71995476D01*
X194848714Y-71995476D02*
X194801095Y-72090714D01*
X194801095Y-72090714D02*
X194753476Y-72281190D01*
X194753476Y-72281190D02*
X194753476Y-72424047D01*
X194753476Y-72424047D02*
X194801095Y-72614523D01*
X194801095Y-72614523D02*
X194848714Y-72709761D01*
X194848714Y-72709761D02*
X194943952Y-72805000D01*
X194943952Y-72805000D02*
X195086809Y-72852619D01*
X195086809Y-72852619D02*
X195182047Y-72852619D01*
X195182047Y-72852619D02*
X195324904Y-72805000D01*
X195324904Y-72805000D02*
X195372523Y-72757380D01*
X195372523Y-72757380D02*
X195372523Y-72424047D01*
X195372523Y-72424047D02*
X195182047Y-72424047D01*
X195801095Y-72852619D02*
X195801095Y-71852619D01*
X195801095Y-71852619D02*
X196182047Y-71852619D01*
X196182047Y-71852619D02*
X196277285Y-71900238D01*
X196277285Y-71900238D02*
X196324904Y-71947857D01*
X196324904Y-71947857D02*
X196372523Y-72043095D01*
X196372523Y-72043095D02*
X196372523Y-72185952D01*
X196372523Y-72185952D02*
X196324904Y-72281190D01*
X196324904Y-72281190D02*
X196277285Y-72328809D01*
X196277285Y-72328809D02*
X196182047Y-72376428D01*
X196182047Y-72376428D02*
X195801095Y-72376428D01*
X197277285Y-71852619D02*
X196801095Y-71852619D01*
X196801095Y-71852619D02*
X196753476Y-72328809D01*
X196753476Y-72328809D02*
X196801095Y-72281190D01*
X196801095Y-72281190D02*
X196896333Y-72233571D01*
X196896333Y-72233571D02*
X197134428Y-72233571D01*
X197134428Y-72233571D02*
X197229666Y-72281190D01*
X197229666Y-72281190D02*
X197277285Y-72328809D01*
X197277285Y-72328809D02*
X197324904Y-72424047D01*
X197324904Y-72424047D02*
X197324904Y-72662142D01*
X197324904Y-72662142D02*
X197277285Y-72757380D01*
X197277285Y-72757380D02*
X197229666Y-72805000D01*
X197229666Y-72805000D02*
X197134428Y-72852619D01*
X197134428Y-72852619D02*
X196896333Y-72852619D01*
X196896333Y-72852619D02*
X196801095Y-72805000D01*
X196801095Y-72805000D02*
X196753476Y-72757380D01*
X168942142Y-71842238D02*
X168846904Y-71794619D01*
X168846904Y-71794619D02*
X168704047Y-71794619D01*
X168704047Y-71794619D02*
X168561190Y-71842238D01*
X168561190Y-71842238D02*
X168465952Y-71937476D01*
X168465952Y-71937476D02*
X168418333Y-72032714D01*
X168418333Y-72032714D02*
X168370714Y-72223190D01*
X168370714Y-72223190D02*
X168370714Y-72366047D01*
X168370714Y-72366047D02*
X168418333Y-72556523D01*
X168418333Y-72556523D02*
X168465952Y-72651761D01*
X168465952Y-72651761D02*
X168561190Y-72747000D01*
X168561190Y-72747000D02*
X168704047Y-72794619D01*
X168704047Y-72794619D02*
X168799285Y-72794619D01*
X168799285Y-72794619D02*
X168942142Y-72747000D01*
X168942142Y-72747000D02*
X168989761Y-72699380D01*
X168989761Y-72699380D02*
X168989761Y-72366047D01*
X168989761Y-72366047D02*
X168799285Y-72366047D01*
X169418333Y-72794619D02*
X169418333Y-71794619D01*
X169418333Y-71794619D02*
X169799285Y-71794619D01*
X169799285Y-71794619D02*
X169894523Y-71842238D01*
X169894523Y-71842238D02*
X169942142Y-71889857D01*
X169942142Y-71889857D02*
X169989761Y-71985095D01*
X169989761Y-71985095D02*
X169989761Y-72127952D01*
X169989761Y-72127952D02*
X169942142Y-72223190D01*
X169942142Y-72223190D02*
X169894523Y-72270809D01*
X169894523Y-72270809D02*
X169799285Y-72318428D01*
X169799285Y-72318428D02*
X169418333Y-72318428D01*
X170370714Y-71889857D02*
X170418333Y-71842238D01*
X170418333Y-71842238D02*
X170513571Y-71794619D01*
X170513571Y-71794619D02*
X170751666Y-71794619D01*
X170751666Y-71794619D02*
X170846904Y-71842238D01*
X170846904Y-71842238D02*
X170894523Y-71889857D01*
X170894523Y-71889857D02*
X170942142Y-71985095D01*
X170942142Y-71985095D02*
X170942142Y-72080333D01*
X170942142Y-72080333D02*
X170894523Y-72223190D01*
X170894523Y-72223190D02*
X170323095Y-72794619D01*
X170323095Y-72794619D02*
X170942142Y-72794619D01*
X171513571Y-72223190D02*
X171418333Y-72175571D01*
X171418333Y-72175571D02*
X171370714Y-72127952D01*
X171370714Y-72127952D02*
X171323095Y-72032714D01*
X171323095Y-72032714D02*
X171323095Y-71985095D01*
X171323095Y-71985095D02*
X171370714Y-71889857D01*
X171370714Y-71889857D02*
X171418333Y-71842238D01*
X171418333Y-71842238D02*
X171513571Y-71794619D01*
X171513571Y-71794619D02*
X171704047Y-71794619D01*
X171704047Y-71794619D02*
X171799285Y-71842238D01*
X171799285Y-71842238D02*
X171846904Y-71889857D01*
X171846904Y-71889857D02*
X171894523Y-71985095D01*
X171894523Y-71985095D02*
X171894523Y-72032714D01*
X171894523Y-72032714D02*
X171846904Y-72127952D01*
X171846904Y-72127952D02*
X171799285Y-72175571D01*
X171799285Y-72175571D02*
X171704047Y-72223190D01*
X171704047Y-72223190D02*
X171513571Y-72223190D01*
X171513571Y-72223190D02*
X171418333Y-72270809D01*
X171418333Y-72270809D02*
X171370714Y-72318428D01*
X171370714Y-72318428D02*
X171323095Y-72413666D01*
X171323095Y-72413666D02*
X171323095Y-72604142D01*
X171323095Y-72604142D02*
X171370714Y-72699380D01*
X171370714Y-72699380D02*
X171418333Y-72747000D01*
X171418333Y-72747000D02*
X171513571Y-72794619D01*
X171513571Y-72794619D02*
X171704047Y-72794619D01*
X171704047Y-72794619D02*
X171799285Y-72747000D01*
X171799285Y-72747000D02*
X171846904Y-72699380D01*
X171846904Y-72699380D02*
X171894523Y-72604142D01*
X171894523Y-72604142D02*
X171894523Y-72413666D01*
X171894523Y-72413666D02*
X171846904Y-72318428D01*
X171846904Y-72318428D02*
X171799285Y-72270809D01*
X171799285Y-72270809D02*
X171704047Y-72223190D01*
X195324904Y-43960238D02*
X195229666Y-43912619D01*
X195229666Y-43912619D02*
X195086809Y-43912619D01*
X195086809Y-43912619D02*
X194943952Y-43960238D01*
X194943952Y-43960238D02*
X194848714Y-44055476D01*
X194848714Y-44055476D02*
X194801095Y-44150714D01*
X194801095Y-44150714D02*
X194753476Y-44341190D01*
X194753476Y-44341190D02*
X194753476Y-44484047D01*
X194753476Y-44484047D02*
X194801095Y-44674523D01*
X194801095Y-44674523D02*
X194848714Y-44769761D01*
X194848714Y-44769761D02*
X194943952Y-44865000D01*
X194943952Y-44865000D02*
X195086809Y-44912619D01*
X195086809Y-44912619D02*
X195182047Y-44912619D01*
X195182047Y-44912619D02*
X195324904Y-44865000D01*
X195324904Y-44865000D02*
X195372523Y-44817380D01*
X195372523Y-44817380D02*
X195372523Y-44484047D01*
X195372523Y-44484047D02*
X195182047Y-44484047D01*
X195801095Y-44912619D02*
X195801095Y-43912619D01*
X195801095Y-43912619D02*
X196372523Y-44912619D01*
X196372523Y-44912619D02*
X196372523Y-43912619D01*
X196848714Y-44912619D02*
X196848714Y-43912619D01*
X196848714Y-43912619D02*
X197086809Y-43912619D01*
X197086809Y-43912619D02*
X197229666Y-43960238D01*
X197229666Y-43960238D02*
X197324904Y-44055476D01*
X197324904Y-44055476D02*
X197372523Y-44150714D01*
X197372523Y-44150714D02*
X197420142Y-44341190D01*
X197420142Y-44341190D02*
X197420142Y-44484047D01*
X197420142Y-44484047D02*
X197372523Y-44674523D01*
X197372523Y-44674523D02*
X197324904Y-44769761D01*
X197324904Y-44769761D02*
X197229666Y-44865000D01*
X197229666Y-44865000D02*
X197086809Y-44912619D01*
X197086809Y-44912619D02*
X196848714Y-44912619D01*
X195324904Y-66820238D02*
X195229666Y-66772619D01*
X195229666Y-66772619D02*
X195086809Y-66772619D01*
X195086809Y-66772619D02*
X194943952Y-66820238D01*
X194943952Y-66820238D02*
X194848714Y-66915476D01*
X194848714Y-66915476D02*
X194801095Y-67010714D01*
X194801095Y-67010714D02*
X194753476Y-67201190D01*
X194753476Y-67201190D02*
X194753476Y-67344047D01*
X194753476Y-67344047D02*
X194801095Y-67534523D01*
X194801095Y-67534523D02*
X194848714Y-67629761D01*
X194848714Y-67629761D02*
X194943952Y-67725000D01*
X194943952Y-67725000D02*
X195086809Y-67772619D01*
X195086809Y-67772619D02*
X195182047Y-67772619D01*
X195182047Y-67772619D02*
X195324904Y-67725000D01*
X195324904Y-67725000D02*
X195372523Y-67677380D01*
X195372523Y-67677380D02*
X195372523Y-67344047D01*
X195372523Y-67344047D02*
X195182047Y-67344047D01*
X195801095Y-67772619D02*
X195801095Y-66772619D01*
X195801095Y-66772619D02*
X196182047Y-66772619D01*
X196182047Y-66772619D02*
X196277285Y-66820238D01*
X196277285Y-66820238D02*
X196324904Y-66867857D01*
X196324904Y-66867857D02*
X196372523Y-66963095D01*
X196372523Y-66963095D02*
X196372523Y-67105952D01*
X196372523Y-67105952D02*
X196324904Y-67201190D01*
X196324904Y-67201190D02*
X196277285Y-67248809D01*
X196277285Y-67248809D02*
X196182047Y-67296428D01*
X196182047Y-67296428D02*
X195801095Y-67296428D01*
X197229666Y-66772619D02*
X197039190Y-66772619D01*
X197039190Y-66772619D02*
X196943952Y-66820238D01*
X196943952Y-66820238D02*
X196896333Y-66867857D01*
X196896333Y-66867857D02*
X196801095Y-67010714D01*
X196801095Y-67010714D02*
X196753476Y-67201190D01*
X196753476Y-67201190D02*
X196753476Y-67582142D01*
X196753476Y-67582142D02*
X196801095Y-67677380D01*
X196801095Y-67677380D02*
X196848714Y-67725000D01*
X196848714Y-67725000D02*
X196943952Y-67772619D01*
X196943952Y-67772619D02*
X197134428Y-67772619D01*
X197134428Y-67772619D02*
X197229666Y-67725000D01*
X197229666Y-67725000D02*
X197277285Y-67677380D01*
X197277285Y-67677380D02*
X197324904Y-67582142D01*
X197324904Y-67582142D02*
X197324904Y-67344047D01*
X197324904Y-67344047D02*
X197277285Y-67248809D01*
X197277285Y-67248809D02*
X197229666Y-67201190D01*
X197229666Y-67201190D02*
X197134428Y-67153571D01*
X197134428Y-67153571D02*
X196943952Y-67153571D01*
X196943952Y-67153571D02*
X196848714Y-67201190D01*
X196848714Y-67201190D02*
X196801095Y-67248809D01*
X196801095Y-67248809D02*
X196753476Y-67344047D01*
X195324904Y-54120238D02*
X195229666Y-54072619D01*
X195229666Y-54072619D02*
X195086809Y-54072619D01*
X195086809Y-54072619D02*
X194943952Y-54120238D01*
X194943952Y-54120238D02*
X194848714Y-54215476D01*
X194848714Y-54215476D02*
X194801095Y-54310714D01*
X194801095Y-54310714D02*
X194753476Y-54501190D01*
X194753476Y-54501190D02*
X194753476Y-54644047D01*
X194753476Y-54644047D02*
X194801095Y-54834523D01*
X194801095Y-54834523D02*
X194848714Y-54929761D01*
X194848714Y-54929761D02*
X194943952Y-55025000D01*
X194943952Y-55025000D02*
X195086809Y-55072619D01*
X195086809Y-55072619D02*
X195182047Y-55072619D01*
X195182047Y-55072619D02*
X195324904Y-55025000D01*
X195324904Y-55025000D02*
X195372523Y-54977380D01*
X195372523Y-54977380D02*
X195372523Y-54644047D01*
X195372523Y-54644047D02*
X195182047Y-54644047D01*
X195801095Y-55072619D02*
X195801095Y-54072619D01*
X195801095Y-54072619D02*
X196182047Y-54072619D01*
X196182047Y-54072619D02*
X196277285Y-54120238D01*
X196277285Y-54120238D02*
X196324904Y-54167857D01*
X196324904Y-54167857D02*
X196372523Y-54263095D01*
X196372523Y-54263095D02*
X196372523Y-54405952D01*
X196372523Y-54405952D02*
X196324904Y-54501190D01*
X196324904Y-54501190D02*
X196277285Y-54548809D01*
X196277285Y-54548809D02*
X196182047Y-54596428D01*
X196182047Y-54596428D02*
X195801095Y-54596428D01*
X197324904Y-55072619D02*
X196753476Y-55072619D01*
X197039190Y-55072619D02*
X197039190Y-54072619D01*
X197039190Y-54072619D02*
X196943952Y-54215476D01*
X196943952Y-54215476D02*
X196848714Y-54310714D01*
X196848714Y-54310714D02*
X196753476Y-54358333D01*
X197943952Y-54072619D02*
X198039190Y-54072619D01*
X198039190Y-54072619D02*
X198134428Y-54120238D01*
X198134428Y-54120238D02*
X198182047Y-54167857D01*
X198182047Y-54167857D02*
X198229666Y-54263095D01*
X198229666Y-54263095D02*
X198277285Y-54453571D01*
X198277285Y-54453571D02*
X198277285Y-54691666D01*
X198277285Y-54691666D02*
X198229666Y-54882142D01*
X198229666Y-54882142D02*
X198182047Y-54977380D01*
X198182047Y-54977380D02*
X198134428Y-55025000D01*
X198134428Y-55025000D02*
X198039190Y-55072619D01*
X198039190Y-55072619D02*
X197943952Y-55072619D01*
X197943952Y-55072619D02*
X197848714Y-55025000D01*
X197848714Y-55025000D02*
X197801095Y-54977380D01*
X197801095Y-54977380D02*
X197753476Y-54882142D01*
X197753476Y-54882142D02*
X197705857Y-54691666D01*
X197705857Y-54691666D02*
X197705857Y-54453571D01*
X197705857Y-54453571D02*
X197753476Y-54263095D01*
X197753476Y-54263095D02*
X197801095Y-54167857D01*
X197801095Y-54167857D02*
X197848714Y-54120238D01*
X197848714Y-54120238D02*
X197943952Y-54072619D01*
X195324904Y-46500238D02*
X195229666Y-46452619D01*
X195229666Y-46452619D02*
X195086809Y-46452619D01*
X195086809Y-46452619D02*
X194943952Y-46500238D01*
X194943952Y-46500238D02*
X194848714Y-46595476D01*
X194848714Y-46595476D02*
X194801095Y-46690714D01*
X194801095Y-46690714D02*
X194753476Y-46881190D01*
X194753476Y-46881190D02*
X194753476Y-47024047D01*
X194753476Y-47024047D02*
X194801095Y-47214523D01*
X194801095Y-47214523D02*
X194848714Y-47309761D01*
X194848714Y-47309761D02*
X194943952Y-47405000D01*
X194943952Y-47405000D02*
X195086809Y-47452619D01*
X195086809Y-47452619D02*
X195182047Y-47452619D01*
X195182047Y-47452619D02*
X195324904Y-47405000D01*
X195324904Y-47405000D02*
X195372523Y-47357380D01*
X195372523Y-47357380D02*
X195372523Y-47024047D01*
X195372523Y-47024047D02*
X195182047Y-47024047D01*
X195801095Y-47452619D02*
X195801095Y-46452619D01*
X195801095Y-46452619D02*
X196182047Y-46452619D01*
X196182047Y-46452619D02*
X196277285Y-46500238D01*
X196277285Y-46500238D02*
X196324904Y-46547857D01*
X196324904Y-46547857D02*
X196372523Y-46643095D01*
X196372523Y-46643095D02*
X196372523Y-46785952D01*
X196372523Y-46785952D02*
X196324904Y-46881190D01*
X196324904Y-46881190D02*
X196277285Y-46928809D01*
X196277285Y-46928809D02*
X196182047Y-46976428D01*
X196182047Y-46976428D02*
X195801095Y-46976428D01*
X197324904Y-47452619D02*
X196753476Y-47452619D01*
X197039190Y-47452619D02*
X197039190Y-46452619D01*
X197039190Y-46452619D02*
X196943952Y-46595476D01*
X196943952Y-46595476D02*
X196848714Y-46690714D01*
X196848714Y-46690714D02*
X196753476Y-46738333D01*
X197658238Y-46452619D02*
X198277285Y-46452619D01*
X198277285Y-46452619D02*
X197943952Y-46833571D01*
X197943952Y-46833571D02*
X198086809Y-46833571D01*
X198086809Y-46833571D02*
X198182047Y-46881190D01*
X198182047Y-46881190D02*
X198229666Y-46928809D01*
X198229666Y-46928809D02*
X198277285Y-47024047D01*
X198277285Y-47024047D02*
X198277285Y-47262142D01*
X198277285Y-47262142D02*
X198229666Y-47357380D01*
X198229666Y-47357380D02*
X198182047Y-47405000D01*
X198182047Y-47405000D02*
X198086809Y-47452619D01*
X198086809Y-47452619D02*
X197801095Y-47452619D01*
X197801095Y-47452619D02*
X197705857Y-47405000D01*
X197705857Y-47405000D02*
X197658238Y-47357380D01*
X195324904Y-82060238D02*
X195229666Y-82012619D01*
X195229666Y-82012619D02*
X195086809Y-82012619D01*
X195086809Y-82012619D02*
X194943952Y-82060238D01*
X194943952Y-82060238D02*
X194848714Y-82155476D01*
X194848714Y-82155476D02*
X194801095Y-82250714D01*
X194801095Y-82250714D02*
X194753476Y-82441190D01*
X194753476Y-82441190D02*
X194753476Y-82584047D01*
X194753476Y-82584047D02*
X194801095Y-82774523D01*
X194801095Y-82774523D02*
X194848714Y-82869761D01*
X194848714Y-82869761D02*
X194943952Y-82965000D01*
X194943952Y-82965000D02*
X195086809Y-83012619D01*
X195086809Y-83012619D02*
X195182047Y-83012619D01*
X195182047Y-83012619D02*
X195324904Y-82965000D01*
X195324904Y-82965000D02*
X195372523Y-82917380D01*
X195372523Y-82917380D02*
X195372523Y-82584047D01*
X195372523Y-82584047D02*
X195182047Y-82584047D01*
X195801095Y-83012619D02*
X195801095Y-82012619D01*
X195801095Y-82012619D02*
X196372523Y-83012619D01*
X196372523Y-83012619D02*
X196372523Y-82012619D01*
X196848714Y-83012619D02*
X196848714Y-82012619D01*
X196848714Y-82012619D02*
X197086809Y-82012619D01*
X197086809Y-82012619D02*
X197229666Y-82060238D01*
X197229666Y-82060238D02*
X197324904Y-82155476D01*
X197324904Y-82155476D02*
X197372523Y-82250714D01*
X197372523Y-82250714D02*
X197420142Y-82441190D01*
X197420142Y-82441190D02*
X197420142Y-82584047D01*
X197420142Y-82584047D02*
X197372523Y-82774523D01*
X197372523Y-82774523D02*
X197324904Y-82869761D01*
X197324904Y-82869761D02*
X197229666Y-82965000D01*
X197229666Y-82965000D02*
X197086809Y-83012619D01*
X197086809Y-83012619D02*
X196848714Y-83012619D01*
X195324904Y-61740238D02*
X195229666Y-61692619D01*
X195229666Y-61692619D02*
X195086809Y-61692619D01*
X195086809Y-61692619D02*
X194943952Y-61740238D01*
X194943952Y-61740238D02*
X194848714Y-61835476D01*
X194848714Y-61835476D02*
X194801095Y-61930714D01*
X194801095Y-61930714D02*
X194753476Y-62121190D01*
X194753476Y-62121190D02*
X194753476Y-62264047D01*
X194753476Y-62264047D02*
X194801095Y-62454523D01*
X194801095Y-62454523D02*
X194848714Y-62549761D01*
X194848714Y-62549761D02*
X194943952Y-62645000D01*
X194943952Y-62645000D02*
X195086809Y-62692619D01*
X195086809Y-62692619D02*
X195182047Y-62692619D01*
X195182047Y-62692619D02*
X195324904Y-62645000D01*
X195324904Y-62645000D02*
X195372523Y-62597380D01*
X195372523Y-62597380D02*
X195372523Y-62264047D01*
X195372523Y-62264047D02*
X195182047Y-62264047D01*
X195801095Y-62692619D02*
X195801095Y-61692619D01*
X195801095Y-61692619D02*
X196182047Y-61692619D01*
X196182047Y-61692619D02*
X196277285Y-61740238D01*
X196277285Y-61740238D02*
X196324904Y-61787857D01*
X196324904Y-61787857D02*
X196372523Y-61883095D01*
X196372523Y-61883095D02*
X196372523Y-62025952D01*
X196372523Y-62025952D02*
X196324904Y-62121190D01*
X196324904Y-62121190D02*
X196277285Y-62168809D01*
X196277285Y-62168809D02*
X196182047Y-62216428D01*
X196182047Y-62216428D02*
X195801095Y-62216428D01*
X196943952Y-62121190D02*
X196848714Y-62073571D01*
X196848714Y-62073571D02*
X196801095Y-62025952D01*
X196801095Y-62025952D02*
X196753476Y-61930714D01*
X196753476Y-61930714D02*
X196753476Y-61883095D01*
X196753476Y-61883095D02*
X196801095Y-61787857D01*
X196801095Y-61787857D02*
X196848714Y-61740238D01*
X196848714Y-61740238D02*
X196943952Y-61692619D01*
X196943952Y-61692619D02*
X197134428Y-61692619D01*
X197134428Y-61692619D02*
X197229666Y-61740238D01*
X197229666Y-61740238D02*
X197277285Y-61787857D01*
X197277285Y-61787857D02*
X197324904Y-61883095D01*
X197324904Y-61883095D02*
X197324904Y-61930714D01*
X197324904Y-61930714D02*
X197277285Y-62025952D01*
X197277285Y-62025952D02*
X197229666Y-62073571D01*
X197229666Y-62073571D02*
X197134428Y-62121190D01*
X197134428Y-62121190D02*
X196943952Y-62121190D01*
X196943952Y-62121190D02*
X196848714Y-62168809D01*
X196848714Y-62168809D02*
X196801095Y-62216428D01*
X196801095Y-62216428D02*
X196753476Y-62311666D01*
X196753476Y-62311666D02*
X196753476Y-62502142D01*
X196753476Y-62502142D02*
X196801095Y-62597380D01*
X196801095Y-62597380D02*
X196848714Y-62645000D01*
X196848714Y-62645000D02*
X196943952Y-62692619D01*
X196943952Y-62692619D02*
X197134428Y-62692619D01*
X197134428Y-62692619D02*
X197229666Y-62645000D01*
X197229666Y-62645000D02*
X197277285Y-62597380D01*
X197277285Y-62597380D02*
X197324904Y-62502142D01*
X197324904Y-62502142D02*
X197324904Y-62311666D01*
X197324904Y-62311666D02*
X197277285Y-62216428D01*
X197277285Y-62216428D02*
X197229666Y-62168809D01*
X197229666Y-62168809D02*
X197134428Y-62121190D01*
X195324904Y-84600238D02*
X195229666Y-84552619D01*
X195229666Y-84552619D02*
X195086809Y-84552619D01*
X195086809Y-84552619D02*
X194943952Y-84600238D01*
X194943952Y-84600238D02*
X194848714Y-84695476D01*
X194848714Y-84695476D02*
X194801095Y-84790714D01*
X194801095Y-84790714D02*
X194753476Y-84981190D01*
X194753476Y-84981190D02*
X194753476Y-85124047D01*
X194753476Y-85124047D02*
X194801095Y-85314523D01*
X194801095Y-85314523D02*
X194848714Y-85409761D01*
X194848714Y-85409761D02*
X194943952Y-85505000D01*
X194943952Y-85505000D02*
X195086809Y-85552619D01*
X195086809Y-85552619D02*
X195182047Y-85552619D01*
X195182047Y-85552619D02*
X195324904Y-85505000D01*
X195324904Y-85505000D02*
X195372523Y-85457380D01*
X195372523Y-85457380D02*
X195372523Y-85124047D01*
X195372523Y-85124047D02*
X195182047Y-85124047D01*
X195801095Y-85552619D02*
X195801095Y-84552619D01*
X195801095Y-84552619D02*
X196182047Y-84552619D01*
X196182047Y-84552619D02*
X196277285Y-84600238D01*
X196277285Y-84600238D02*
X196324904Y-84647857D01*
X196324904Y-84647857D02*
X196372523Y-84743095D01*
X196372523Y-84743095D02*
X196372523Y-84885952D01*
X196372523Y-84885952D02*
X196324904Y-84981190D01*
X196324904Y-84981190D02*
X196277285Y-85028809D01*
X196277285Y-85028809D02*
X196182047Y-85076428D01*
X196182047Y-85076428D02*
X195801095Y-85076428D01*
X197324904Y-85552619D02*
X196753476Y-85552619D01*
X197039190Y-85552619D02*
X197039190Y-84552619D01*
X197039190Y-84552619D02*
X196943952Y-84695476D01*
X196943952Y-84695476D02*
X196848714Y-84790714D01*
X196848714Y-84790714D02*
X196753476Y-84838333D01*
X168561190Y-84494619D02*
X168894523Y-85494619D01*
X168894523Y-85494619D02*
X169227856Y-84494619D01*
X169513571Y-85447000D02*
X169656428Y-85494619D01*
X169656428Y-85494619D02*
X169894523Y-85494619D01*
X169894523Y-85494619D02*
X169989761Y-85447000D01*
X169989761Y-85447000D02*
X170037380Y-85399380D01*
X170037380Y-85399380D02*
X170084999Y-85304142D01*
X170084999Y-85304142D02*
X170084999Y-85208904D01*
X170084999Y-85208904D02*
X170037380Y-85113666D01*
X170037380Y-85113666D02*
X169989761Y-85066047D01*
X169989761Y-85066047D02*
X169894523Y-85018428D01*
X169894523Y-85018428D02*
X169704047Y-84970809D01*
X169704047Y-84970809D02*
X169608809Y-84923190D01*
X169608809Y-84923190D02*
X169561190Y-84875571D01*
X169561190Y-84875571D02*
X169513571Y-84780333D01*
X169513571Y-84780333D02*
X169513571Y-84685095D01*
X169513571Y-84685095D02*
X169561190Y-84589857D01*
X169561190Y-84589857D02*
X169608809Y-84542238D01*
X169608809Y-84542238D02*
X169704047Y-84494619D01*
X169704047Y-84494619D02*
X169942142Y-84494619D01*
X169942142Y-84494619D02*
X170084999Y-84542238D01*
X170704047Y-85018428D02*
X170704047Y-85494619D01*
X170370714Y-84494619D02*
X170704047Y-85018428D01*
X170704047Y-85018428D02*
X171037380Y-84494619D01*
X171323095Y-85447000D02*
X171465952Y-85494619D01*
X171465952Y-85494619D02*
X171704047Y-85494619D01*
X171704047Y-85494619D02*
X171799285Y-85447000D01*
X171799285Y-85447000D02*
X171846904Y-85399380D01*
X171846904Y-85399380D02*
X171894523Y-85304142D01*
X171894523Y-85304142D02*
X171894523Y-85208904D01*
X171894523Y-85208904D02*
X171846904Y-85113666D01*
X171846904Y-85113666D02*
X171799285Y-85066047D01*
X171799285Y-85066047D02*
X171704047Y-85018428D01*
X171704047Y-85018428D02*
X171513571Y-84970809D01*
X171513571Y-84970809D02*
X171418333Y-84923190D01*
X171418333Y-84923190D02*
X171370714Y-84875571D01*
X171370714Y-84875571D02*
X171323095Y-84780333D01*
X171323095Y-84780333D02*
X171323095Y-84685095D01*
X171323095Y-84685095D02*
X171370714Y-84589857D01*
X171370714Y-84589857D02*
X171418333Y-84542238D01*
X171418333Y-84542238D02*
X171513571Y-84494619D01*
X171513571Y-84494619D02*
X171751666Y-84494619D01*
X171751666Y-84494619D02*
X171894523Y-84542238D01*
X195324904Y-76980238D02*
X195229666Y-76932619D01*
X195229666Y-76932619D02*
X195086809Y-76932619D01*
X195086809Y-76932619D02*
X194943952Y-76980238D01*
X194943952Y-76980238D02*
X194848714Y-77075476D01*
X194848714Y-77075476D02*
X194801095Y-77170714D01*
X194801095Y-77170714D02*
X194753476Y-77361190D01*
X194753476Y-77361190D02*
X194753476Y-77504047D01*
X194753476Y-77504047D02*
X194801095Y-77694523D01*
X194801095Y-77694523D02*
X194848714Y-77789761D01*
X194848714Y-77789761D02*
X194943952Y-77885000D01*
X194943952Y-77885000D02*
X195086809Y-77932619D01*
X195086809Y-77932619D02*
X195182047Y-77932619D01*
X195182047Y-77932619D02*
X195324904Y-77885000D01*
X195324904Y-77885000D02*
X195372523Y-77837380D01*
X195372523Y-77837380D02*
X195372523Y-77504047D01*
X195372523Y-77504047D02*
X195182047Y-77504047D01*
X195801095Y-77932619D02*
X195801095Y-76932619D01*
X195801095Y-76932619D02*
X196182047Y-76932619D01*
X196182047Y-76932619D02*
X196277285Y-76980238D01*
X196277285Y-76980238D02*
X196324904Y-77027857D01*
X196324904Y-77027857D02*
X196372523Y-77123095D01*
X196372523Y-77123095D02*
X196372523Y-77265952D01*
X196372523Y-77265952D02*
X196324904Y-77361190D01*
X196324904Y-77361190D02*
X196277285Y-77408809D01*
X196277285Y-77408809D02*
X196182047Y-77456428D01*
X196182047Y-77456428D02*
X195801095Y-77456428D01*
X196705857Y-76932619D02*
X197324904Y-76932619D01*
X197324904Y-76932619D02*
X196991571Y-77313571D01*
X196991571Y-77313571D02*
X197134428Y-77313571D01*
X197134428Y-77313571D02*
X197229666Y-77361190D01*
X197229666Y-77361190D02*
X197277285Y-77408809D01*
X197277285Y-77408809D02*
X197324904Y-77504047D01*
X197324904Y-77504047D02*
X197324904Y-77742142D01*
X197324904Y-77742142D02*
X197277285Y-77837380D01*
X197277285Y-77837380D02*
X197229666Y-77885000D01*
X197229666Y-77885000D02*
X197134428Y-77932619D01*
X197134428Y-77932619D02*
X196848714Y-77932619D01*
X196848714Y-77932619D02*
X196753476Y-77885000D01*
X196753476Y-77885000D02*
X196705857Y-77837380D01*
X195324904Y-41420238D02*
X195229666Y-41372619D01*
X195229666Y-41372619D02*
X195086809Y-41372619D01*
X195086809Y-41372619D02*
X194943952Y-41420238D01*
X194943952Y-41420238D02*
X194848714Y-41515476D01*
X194848714Y-41515476D02*
X194801095Y-41610714D01*
X194801095Y-41610714D02*
X194753476Y-41801190D01*
X194753476Y-41801190D02*
X194753476Y-41944047D01*
X194753476Y-41944047D02*
X194801095Y-42134523D01*
X194801095Y-42134523D02*
X194848714Y-42229761D01*
X194848714Y-42229761D02*
X194943952Y-42325000D01*
X194943952Y-42325000D02*
X195086809Y-42372619D01*
X195086809Y-42372619D02*
X195182047Y-42372619D01*
X195182047Y-42372619D02*
X195324904Y-42325000D01*
X195324904Y-42325000D02*
X195372523Y-42277380D01*
X195372523Y-42277380D02*
X195372523Y-41944047D01*
X195372523Y-41944047D02*
X195182047Y-41944047D01*
X195801095Y-42372619D02*
X195801095Y-41372619D01*
X195801095Y-41372619D02*
X196182047Y-41372619D01*
X196182047Y-41372619D02*
X196277285Y-41420238D01*
X196277285Y-41420238D02*
X196324904Y-41467857D01*
X196324904Y-41467857D02*
X196372523Y-41563095D01*
X196372523Y-41563095D02*
X196372523Y-41705952D01*
X196372523Y-41705952D02*
X196324904Y-41801190D01*
X196324904Y-41801190D02*
X196277285Y-41848809D01*
X196277285Y-41848809D02*
X196182047Y-41896428D01*
X196182047Y-41896428D02*
X195801095Y-41896428D01*
X197324904Y-42372619D02*
X196753476Y-42372619D01*
X197039190Y-42372619D02*
X197039190Y-41372619D01*
X197039190Y-41372619D02*
X196943952Y-41515476D01*
X196943952Y-41515476D02*
X196848714Y-41610714D01*
X196848714Y-41610714D02*
X196753476Y-41658333D01*
X198182047Y-41705952D02*
X198182047Y-42372619D01*
X197943952Y-41325000D02*
X197705857Y-42039285D01*
X197705857Y-42039285D02*
X198324904Y-42039285D01*
X169839285Y-82002238D02*
X169744047Y-81954619D01*
X169744047Y-81954619D02*
X169601190Y-81954619D01*
X169601190Y-81954619D02*
X169458333Y-82002238D01*
X169458333Y-82002238D02*
X169363095Y-82097476D01*
X169363095Y-82097476D02*
X169315476Y-82192714D01*
X169315476Y-82192714D02*
X169267857Y-82383190D01*
X169267857Y-82383190D02*
X169267857Y-82526047D01*
X169267857Y-82526047D02*
X169315476Y-82716523D01*
X169315476Y-82716523D02*
X169363095Y-82811761D01*
X169363095Y-82811761D02*
X169458333Y-82907000D01*
X169458333Y-82907000D02*
X169601190Y-82954619D01*
X169601190Y-82954619D02*
X169696428Y-82954619D01*
X169696428Y-82954619D02*
X169839285Y-82907000D01*
X169839285Y-82907000D02*
X169886904Y-82859380D01*
X169886904Y-82859380D02*
X169886904Y-82526047D01*
X169886904Y-82526047D02*
X169696428Y-82526047D01*
X170315476Y-82954619D02*
X170315476Y-81954619D01*
X170315476Y-81954619D02*
X170886904Y-82954619D01*
X170886904Y-82954619D02*
X170886904Y-81954619D01*
X171363095Y-82954619D02*
X171363095Y-81954619D01*
X171363095Y-81954619D02*
X171601190Y-81954619D01*
X171601190Y-81954619D02*
X171744047Y-82002238D01*
X171744047Y-82002238D02*
X171839285Y-82097476D01*
X171839285Y-82097476D02*
X171886904Y-82192714D01*
X171886904Y-82192714D02*
X171934523Y-82383190D01*
X171934523Y-82383190D02*
X171934523Y-82526047D01*
X171934523Y-82526047D02*
X171886904Y-82716523D01*
X171886904Y-82716523D02*
X171839285Y-82811761D01*
X171839285Y-82811761D02*
X171744047Y-82907000D01*
X171744047Y-82907000D02*
X171601190Y-82954619D01*
X171601190Y-82954619D02*
X171363095Y-82954619D01*
X195324904Y-38880238D02*
X195229666Y-38832619D01*
X195229666Y-38832619D02*
X195086809Y-38832619D01*
X195086809Y-38832619D02*
X194943952Y-38880238D01*
X194943952Y-38880238D02*
X194848714Y-38975476D01*
X194848714Y-38975476D02*
X194801095Y-39070714D01*
X194801095Y-39070714D02*
X194753476Y-39261190D01*
X194753476Y-39261190D02*
X194753476Y-39404047D01*
X194753476Y-39404047D02*
X194801095Y-39594523D01*
X194801095Y-39594523D02*
X194848714Y-39689761D01*
X194848714Y-39689761D02*
X194943952Y-39785000D01*
X194943952Y-39785000D02*
X195086809Y-39832619D01*
X195086809Y-39832619D02*
X195182047Y-39832619D01*
X195182047Y-39832619D02*
X195324904Y-39785000D01*
X195324904Y-39785000D02*
X195372523Y-39737380D01*
X195372523Y-39737380D02*
X195372523Y-39404047D01*
X195372523Y-39404047D02*
X195182047Y-39404047D01*
X195801095Y-39832619D02*
X195801095Y-38832619D01*
X195801095Y-38832619D02*
X196182047Y-38832619D01*
X196182047Y-38832619D02*
X196277285Y-38880238D01*
X196277285Y-38880238D02*
X196324904Y-38927857D01*
X196324904Y-38927857D02*
X196372523Y-39023095D01*
X196372523Y-39023095D02*
X196372523Y-39165952D01*
X196372523Y-39165952D02*
X196324904Y-39261190D01*
X196324904Y-39261190D02*
X196277285Y-39308809D01*
X196277285Y-39308809D02*
X196182047Y-39356428D01*
X196182047Y-39356428D02*
X195801095Y-39356428D01*
X197324904Y-39832619D02*
X196753476Y-39832619D01*
X197039190Y-39832619D02*
X197039190Y-38832619D01*
X197039190Y-38832619D02*
X196943952Y-38975476D01*
X196943952Y-38975476D02*
X196848714Y-39070714D01*
X196848714Y-39070714D02*
X196753476Y-39118333D01*
X198229666Y-38832619D02*
X197753476Y-38832619D01*
X197753476Y-38832619D02*
X197705857Y-39308809D01*
X197705857Y-39308809D02*
X197753476Y-39261190D01*
X197753476Y-39261190D02*
X197848714Y-39213571D01*
X197848714Y-39213571D02*
X198086809Y-39213571D01*
X198086809Y-39213571D02*
X198182047Y-39261190D01*
X198182047Y-39261190D02*
X198229666Y-39308809D01*
X198229666Y-39308809D02*
X198277285Y-39404047D01*
X198277285Y-39404047D02*
X198277285Y-39642142D01*
X198277285Y-39642142D02*
X198229666Y-39737380D01*
X198229666Y-39737380D02*
X198182047Y-39785000D01*
X198182047Y-39785000D02*
X198086809Y-39832619D01*
X198086809Y-39832619D02*
X197848714Y-39832619D01*
X197848714Y-39832619D02*
X197753476Y-39785000D01*
X197753476Y-39785000D02*
X197705857Y-39737380D01*
X169799285Y-43902238D02*
X169704047Y-43854619D01*
X169704047Y-43854619D02*
X169561190Y-43854619D01*
X169561190Y-43854619D02*
X169418333Y-43902238D01*
X169418333Y-43902238D02*
X169323095Y-43997476D01*
X169323095Y-43997476D02*
X169275476Y-44092714D01*
X169275476Y-44092714D02*
X169227857Y-44283190D01*
X169227857Y-44283190D02*
X169227857Y-44426047D01*
X169227857Y-44426047D02*
X169275476Y-44616523D01*
X169275476Y-44616523D02*
X169323095Y-44711761D01*
X169323095Y-44711761D02*
X169418333Y-44807000D01*
X169418333Y-44807000D02*
X169561190Y-44854619D01*
X169561190Y-44854619D02*
X169656428Y-44854619D01*
X169656428Y-44854619D02*
X169799285Y-44807000D01*
X169799285Y-44807000D02*
X169846904Y-44759380D01*
X169846904Y-44759380D02*
X169846904Y-44426047D01*
X169846904Y-44426047D02*
X169656428Y-44426047D01*
X170275476Y-44854619D02*
X170275476Y-43854619D01*
X170275476Y-43854619D02*
X170846904Y-44854619D01*
X170846904Y-44854619D02*
X170846904Y-43854619D01*
X171323095Y-44854619D02*
X171323095Y-43854619D01*
X171323095Y-43854619D02*
X171561190Y-43854619D01*
X171561190Y-43854619D02*
X171704047Y-43902238D01*
X171704047Y-43902238D02*
X171799285Y-43997476D01*
X171799285Y-43997476D02*
X171846904Y-44092714D01*
X171846904Y-44092714D02*
X171894523Y-44283190D01*
X171894523Y-44283190D02*
X171894523Y-44426047D01*
X171894523Y-44426047D02*
X171846904Y-44616523D01*
X171846904Y-44616523D02*
X171799285Y-44711761D01*
X171799285Y-44711761D02*
X171704047Y-44807000D01*
X171704047Y-44807000D02*
X171561190Y-44854619D01*
X171561190Y-44854619D02*
X171323095Y-44854619D01*
X195324904Y-49040238D02*
X195229666Y-48992619D01*
X195229666Y-48992619D02*
X195086809Y-48992619D01*
X195086809Y-48992619D02*
X194943952Y-49040238D01*
X194943952Y-49040238D02*
X194848714Y-49135476D01*
X194848714Y-49135476D02*
X194801095Y-49230714D01*
X194801095Y-49230714D02*
X194753476Y-49421190D01*
X194753476Y-49421190D02*
X194753476Y-49564047D01*
X194753476Y-49564047D02*
X194801095Y-49754523D01*
X194801095Y-49754523D02*
X194848714Y-49849761D01*
X194848714Y-49849761D02*
X194943952Y-49945000D01*
X194943952Y-49945000D02*
X195086809Y-49992619D01*
X195086809Y-49992619D02*
X195182047Y-49992619D01*
X195182047Y-49992619D02*
X195324904Y-49945000D01*
X195324904Y-49945000D02*
X195372523Y-49897380D01*
X195372523Y-49897380D02*
X195372523Y-49564047D01*
X195372523Y-49564047D02*
X195182047Y-49564047D01*
X195801095Y-49992619D02*
X195801095Y-48992619D01*
X195801095Y-48992619D02*
X196182047Y-48992619D01*
X196182047Y-48992619D02*
X196277285Y-49040238D01*
X196277285Y-49040238D02*
X196324904Y-49087857D01*
X196324904Y-49087857D02*
X196372523Y-49183095D01*
X196372523Y-49183095D02*
X196372523Y-49325952D01*
X196372523Y-49325952D02*
X196324904Y-49421190D01*
X196324904Y-49421190D02*
X196277285Y-49468809D01*
X196277285Y-49468809D02*
X196182047Y-49516428D01*
X196182047Y-49516428D02*
X195801095Y-49516428D01*
X197324904Y-49992619D02*
X196753476Y-49992619D01*
X197039190Y-49992619D02*
X197039190Y-48992619D01*
X197039190Y-48992619D02*
X196943952Y-49135476D01*
X196943952Y-49135476D02*
X196848714Y-49230714D01*
X196848714Y-49230714D02*
X196753476Y-49278333D01*
X197705857Y-49087857D02*
X197753476Y-49040238D01*
X197753476Y-49040238D02*
X197848714Y-48992619D01*
X197848714Y-48992619D02*
X198086809Y-48992619D01*
X198086809Y-48992619D02*
X198182047Y-49040238D01*
X198182047Y-49040238D02*
X198229666Y-49087857D01*
X198229666Y-49087857D02*
X198277285Y-49183095D01*
X198277285Y-49183095D02*
X198277285Y-49278333D01*
X198277285Y-49278333D02*
X198229666Y-49421190D01*
X198229666Y-49421190D02*
X197658238Y-49992619D01*
X197658238Y-49992619D02*
X198277285Y-49992619D01*
X168942142Y-38822238D02*
X168846904Y-38774619D01*
X168846904Y-38774619D02*
X168704047Y-38774619D01*
X168704047Y-38774619D02*
X168561190Y-38822238D01*
X168561190Y-38822238D02*
X168465952Y-38917476D01*
X168465952Y-38917476D02*
X168418333Y-39012714D01*
X168418333Y-39012714D02*
X168370714Y-39203190D01*
X168370714Y-39203190D02*
X168370714Y-39346047D01*
X168370714Y-39346047D02*
X168418333Y-39536523D01*
X168418333Y-39536523D02*
X168465952Y-39631761D01*
X168465952Y-39631761D02*
X168561190Y-39727000D01*
X168561190Y-39727000D02*
X168704047Y-39774619D01*
X168704047Y-39774619D02*
X168799285Y-39774619D01*
X168799285Y-39774619D02*
X168942142Y-39727000D01*
X168942142Y-39727000D02*
X168989761Y-39679380D01*
X168989761Y-39679380D02*
X168989761Y-39346047D01*
X168989761Y-39346047D02*
X168799285Y-39346047D01*
X169418333Y-39774619D02*
X169418333Y-38774619D01*
X169418333Y-38774619D02*
X169799285Y-38774619D01*
X169799285Y-38774619D02*
X169894523Y-38822238D01*
X169894523Y-38822238D02*
X169942142Y-38869857D01*
X169942142Y-38869857D02*
X169989761Y-38965095D01*
X169989761Y-38965095D02*
X169989761Y-39107952D01*
X169989761Y-39107952D02*
X169942142Y-39203190D01*
X169942142Y-39203190D02*
X169894523Y-39250809D01*
X169894523Y-39250809D02*
X169799285Y-39298428D01*
X169799285Y-39298428D02*
X169418333Y-39298428D01*
X170942142Y-39774619D02*
X170370714Y-39774619D01*
X170656428Y-39774619D02*
X170656428Y-38774619D01*
X170656428Y-38774619D02*
X170561190Y-38917476D01*
X170561190Y-38917476D02*
X170465952Y-39012714D01*
X170465952Y-39012714D02*
X170370714Y-39060333D01*
X171799285Y-38774619D02*
X171608809Y-38774619D01*
X171608809Y-38774619D02*
X171513571Y-38822238D01*
X171513571Y-38822238D02*
X171465952Y-38869857D01*
X171465952Y-38869857D02*
X171370714Y-39012714D01*
X171370714Y-39012714D02*
X171323095Y-39203190D01*
X171323095Y-39203190D02*
X171323095Y-39584142D01*
X171323095Y-39584142D02*
X171370714Y-39679380D01*
X171370714Y-39679380D02*
X171418333Y-39727000D01*
X171418333Y-39727000D02*
X171513571Y-39774619D01*
X171513571Y-39774619D02*
X171704047Y-39774619D01*
X171704047Y-39774619D02*
X171799285Y-39727000D01*
X171799285Y-39727000D02*
X171846904Y-39679380D01*
X171846904Y-39679380D02*
X171894523Y-39584142D01*
X171894523Y-39584142D02*
X171894523Y-39346047D01*
X171894523Y-39346047D02*
X171846904Y-39250809D01*
X171846904Y-39250809D02*
X171799285Y-39203190D01*
X171799285Y-39203190D02*
X171704047Y-39155571D01*
X171704047Y-39155571D02*
X171513571Y-39155571D01*
X171513571Y-39155571D02*
X171418333Y-39203190D01*
X171418333Y-39203190D02*
X171370714Y-39250809D01*
X171370714Y-39250809D02*
X171323095Y-39346047D01*
X168942142Y-54062238D02*
X168846904Y-54014619D01*
X168846904Y-54014619D02*
X168704047Y-54014619D01*
X168704047Y-54014619D02*
X168561190Y-54062238D01*
X168561190Y-54062238D02*
X168465952Y-54157476D01*
X168465952Y-54157476D02*
X168418333Y-54252714D01*
X168418333Y-54252714D02*
X168370714Y-54443190D01*
X168370714Y-54443190D02*
X168370714Y-54586047D01*
X168370714Y-54586047D02*
X168418333Y-54776523D01*
X168418333Y-54776523D02*
X168465952Y-54871761D01*
X168465952Y-54871761D02*
X168561190Y-54967000D01*
X168561190Y-54967000D02*
X168704047Y-55014619D01*
X168704047Y-55014619D02*
X168799285Y-55014619D01*
X168799285Y-55014619D02*
X168942142Y-54967000D01*
X168942142Y-54967000D02*
X168989761Y-54919380D01*
X168989761Y-54919380D02*
X168989761Y-54586047D01*
X168989761Y-54586047D02*
X168799285Y-54586047D01*
X169418333Y-55014619D02*
X169418333Y-54014619D01*
X169418333Y-54014619D02*
X169799285Y-54014619D01*
X169799285Y-54014619D02*
X169894523Y-54062238D01*
X169894523Y-54062238D02*
X169942142Y-54109857D01*
X169942142Y-54109857D02*
X169989761Y-54205095D01*
X169989761Y-54205095D02*
X169989761Y-54347952D01*
X169989761Y-54347952D02*
X169942142Y-54443190D01*
X169942142Y-54443190D02*
X169894523Y-54490809D01*
X169894523Y-54490809D02*
X169799285Y-54538428D01*
X169799285Y-54538428D02*
X169418333Y-54538428D01*
X170370714Y-54109857D02*
X170418333Y-54062238D01*
X170418333Y-54062238D02*
X170513571Y-54014619D01*
X170513571Y-54014619D02*
X170751666Y-54014619D01*
X170751666Y-54014619D02*
X170846904Y-54062238D01*
X170846904Y-54062238D02*
X170894523Y-54109857D01*
X170894523Y-54109857D02*
X170942142Y-54205095D01*
X170942142Y-54205095D02*
X170942142Y-54300333D01*
X170942142Y-54300333D02*
X170894523Y-54443190D01*
X170894523Y-54443190D02*
X170323095Y-55014619D01*
X170323095Y-55014619D02*
X170942142Y-55014619D01*
X171894523Y-55014619D02*
X171323095Y-55014619D01*
X171608809Y-55014619D02*
X171608809Y-54014619D01*
X171608809Y-54014619D02*
X171513571Y-54157476D01*
X171513571Y-54157476D02*
X171418333Y-54252714D01*
X171418333Y-54252714D02*
X171323095Y-54300333D01*
D11*
%TO.C,C3*%
X156434165Y-79650000D02*
X156665835Y-79650000D01*
X156434165Y-80370000D02*
X156665835Y-80370000D01*
%TO.C,C4*%
X156403733Y-77595000D02*
X156696267Y-77595000D01*
X156403733Y-78615000D02*
X156696267Y-78615000D01*
D10*
%TO.C,U3*%
X142240000Y-68580000D02*
X142240000Y-55880000D01*
X144780000Y-53340000D02*
X165100000Y-53340000D01*
X144780000Y-71120000D02*
X165100000Y-71120000D01*
X167640000Y-68580000D02*
X167640000Y-55880000D01*
X144780000Y-53340000D02*
G75*
G03*
X142240000Y-55880000I1J-2540001D01*
G01*
X142240000Y-68580000D02*
G75*
G03*
X144780000Y-71120000I2540001J1D01*
G01*
X167640000Y-55880000D02*
G75*
G03*
X165100000Y-53340000I-2540000J0D01*
G01*
X165100000Y-71120000D02*
G75*
G03*
X167640000Y-68580000I0J2540000D01*
G01*
D11*
%TO.C,C2*%
X171810000Y-83704165D02*
X171810000Y-83935835D01*
X171090000Y-83704165D02*
X171090000Y-83935835D01*
%TO.C,C1*%
X169166000Y-83673733D02*
X169166000Y-83966267D01*
X168146000Y-83673733D02*
X168146000Y-83966267D01*
%TO.C,J1*%
X140995000Y-38060000D02*
X136085000Y-38060000D01*
X131385000Y-52370000D02*
X131385000Y-51770000D01*
X140995000Y-51080000D02*
X140995000Y-38060000D01*
X135595000Y-51070000D02*
X136575000Y-51070000D01*
X137885000Y-54180000D02*
X137885000Y-55460000D01*
X131985000Y-52070000D02*
X131385000Y-52370000D01*
X134285000Y-54180000D02*
X134285000Y-55460000D01*
X140185000Y-51080000D02*
X140995000Y-51080000D01*
X131385000Y-51770000D02*
X131985000Y-52070000D01*
X138485000Y-54180000D02*
X138485000Y-55460000D01*
X131985000Y-51080000D02*
X131175000Y-51080000D01*
X131175000Y-51080000D02*
X131175000Y-38060000D01*
X133685000Y-54180000D02*
X133685000Y-55460000D01*
X131175000Y-38060000D02*
X136085000Y-38060000D01*
D10*
%TO.C,U2*%
X158225000Y-82145000D02*
X158225000Y-82445000D01*
X154875000Y-85495000D02*
X154875000Y-85195000D01*
X154875000Y-85495000D02*
X158225000Y-85495000D01*
X158225000Y-85495000D02*
X158225000Y-85195000D01*
X154875000Y-82370000D02*
X153650000Y-82370000D01*
X154875000Y-82145000D02*
X158225000Y-82145000D01*
X154875000Y-82145000D02*
X154875000Y-82370000D01*
D11*
%TO.C,R3*%
X144045000Y-78010000D02*
X144045000Y-84550000D01*
X146785000Y-84550000D02*
X146785000Y-78010000D01*
X146785000Y-78010000D02*
X144045000Y-78010000D01*
X144045000Y-84550000D02*
X146785000Y-84550000D01*
X145415000Y-85320000D02*
X145415000Y-84550000D01*
X145415000Y-77240000D02*
X145415000Y-78010000D01*
%TO.C,R2*%
X138965000Y-78010000D02*
X138965000Y-84550000D01*
X141705000Y-84550000D02*
X141705000Y-78010000D01*
X141705000Y-78010000D02*
X138965000Y-78010000D01*
X138965000Y-84550000D02*
X141705000Y-84550000D01*
X140335000Y-85320000D02*
X140335000Y-84550000D01*
X140335000Y-77240000D02*
X140335000Y-78010000D01*
%TO.C,R1*%
X133885000Y-78010000D02*
X133885000Y-84550000D01*
X136625000Y-84550000D02*
X136625000Y-78010000D01*
X136625000Y-78010000D02*
X133885000Y-78010000D01*
X133885000Y-84550000D02*
X136625000Y-84550000D01*
X135255000Y-85320000D02*
X135255000Y-84550000D01*
X135255000Y-77240000D02*
X135255000Y-78010000D01*
%TO.C,U1*%
X172633000Y-89000000D02*
X193633000Y-89000000D01*
X193633000Y-89000000D02*
X193633000Y-38000000D01*
X193633000Y-38000000D02*
X172633000Y-38000000D01*
X172633000Y-38000000D02*
X172633000Y-89000000D01*
%TD*%
M02*
