M48
; DRILL file {KiCad 7.0.1} date Sun 07 May 2023 12:29:07 AM EDT
; FORMAT={-:-/ absolute / inch / decimal}
; #@! TF.CreationDate,2023-05-07T00:29:07-04:00
; #@! TF.GenerationSoftware,Kicad,Pcbnew,7.0.1
; #@! TF.FileFunction,Plated,1,2,PTH
FMAT,2
INCH
; #@! TA.AperFunction,Plated,PTH,ViaDrill
T1C0.0157
; #@! TA.AperFunction,Plated,PTH,ComponentDrill
T2C0.0315
; #@! TA.AperFunction,Plated,PTH,ComponentDrill
T3C0.0394
; #@! TA.AperFunction,Plated,PTH,ComponentDrill
T4C0.0709
; #@! TA.AperFunction,Plated,PTH,ComponentDrill
T5C0.0984
%
G90
G05
T1
X5.85Y-2.95
X5.965Y-3.34
X6.15Y-3.25
X6.175Y-3.3
X6.35Y-3.3
X6.425Y-3.3
X6.65Y-3.2
X7.175Y-3.45
X7.4Y-3.45
T2
X5.325Y-3.0
X5.325Y-3.4
X5.525Y-3.0
X5.525Y-3.4
X5.725Y-3.0
X5.725Y-3.4
T3
X5.85Y-2.7
X5.95Y-2.2
X5.95Y-2.7
X6.05Y-2.2
X6.05Y-2.7
X6.15Y-2.2
X6.15Y-2.7
X6.25Y-2.2
X6.25Y-2.7
X6.35Y-2.7
X6.86Y-1.55
X6.86Y-1.65
X6.86Y-1.75
X6.86Y-1.85
X6.86Y-1.95
X6.86Y-2.05
X6.86Y-2.15
X6.86Y-2.25
X6.86Y-2.35
X6.86Y-2.45
X6.86Y-2.55
X6.86Y-2.65
X6.86Y-2.75
X6.86Y-2.85
X6.86Y-2.95
X6.86Y-3.05
X6.86Y-3.15
X6.86Y-3.25
X6.86Y-3.35
X6.86Y-3.45
X7.56Y-1.55
X7.56Y-1.65
X7.56Y-1.75
X7.56Y-1.85
X7.56Y-1.95
X7.56Y-2.05
X7.56Y-2.15
X7.56Y-2.25
X7.56Y-2.35
X7.56Y-2.45
X7.56Y-2.55
X7.56Y-2.65
X7.56Y-2.75
X7.56Y-2.85
X7.56Y-2.95
X7.56Y-3.05
X7.56Y-3.15
X7.56Y-3.25
X7.56Y-3.35
X7.56Y-3.45
T4
X5.275Y-2.05
X5.275Y-2.2665
X5.4404Y-2.05
X5.4404Y-2.2665
T5
X5.7Y-2.2
X5.7Y-2.7
X6.5Y-2.2
X6.5Y-2.7
T0
M30
