%TF.GenerationSoftware,KiCad,Pcbnew,7.0.1*%
%TF.CreationDate,2023-05-07T00:29:04-04:00*%
%TF.ProjectId,integrated_joystick_dac,696e7465-6772-4617-9465-645f6a6f7973,rev?*%
%TF.SameCoordinates,Original*%
%TF.FileFunction,Copper,L1,Top*%
%TF.FilePolarity,Positive*%
%FSLAX46Y46*%
G04 Gerber Fmt 4.6, Leading zero omitted, Abs format (unit mm)*
G04 Created by KiCad (PCBNEW 7.0.1) date 2023-05-07 00:29:04*
%MOMM*%
%LPD*%
G01*
G04 APERTURE LIST*
G04 Aperture macros list*
%AMRoundRect*
0 Rectangle with rounded corners*
0 $1 Rounding radius*
0 $2 $3 $4 $5 $6 $7 $8 $9 X,Y pos of 4 corners*
0 Add a 4 corners polygon primitive as box body*
4,1,4,$2,$3,$4,$5,$6,$7,$8,$9,$2,$3,0*
0 Add four circle primitives for the rounded corners*
1,1,$1+$1,$2,$3*
1,1,$1+$1,$4,$5*
1,1,$1+$1,$6,$7*
1,1,$1+$1,$8,$9*
0 Add four rect primitives between the rounded corners*
20,1,$1+$1,$2,$3,$4,$5,0*
20,1,$1+$1,$4,$5,$6,$7,0*
20,1,$1+$1,$6,$7,$8,$9,0*
20,1,$1+$1,$8,$9,$2,$3,0*%
G04 Aperture macros list end*
%TA.AperFunction,SMDPad,CuDef*%
%ADD10RoundRect,0.155000X-0.212500X-0.155000X0.212500X-0.155000X0.212500X0.155000X-0.212500X0.155000X0*%
%TD*%
%TA.AperFunction,SMDPad,CuDef*%
%ADD11RoundRect,0.237500X-0.300000X-0.237500X0.300000X-0.237500X0.300000X0.237500X-0.300000X0.237500X0*%
%TD*%
%TA.AperFunction,ComponentPad*%
%ADD12C,3.200000*%
%TD*%
%TA.AperFunction,ComponentPad*%
%ADD13C,1.676400*%
%TD*%
%TA.AperFunction,SMDPad,CuDef*%
%ADD14RoundRect,0.155000X-0.155000X0.212500X-0.155000X-0.212500X0.155000X-0.212500X0.155000X0.212500X0*%
%TD*%
%TA.AperFunction,SMDPad,CuDef*%
%ADD15RoundRect,0.237500X-0.237500X0.300000X-0.237500X-0.300000X0.237500X-0.300000X0.237500X0.300000X0*%
%TD*%
%TA.AperFunction,ComponentPad*%
%ADD16RoundRect,0.250001X-1.099999X-1.599999X1.099999X-1.599999X1.099999X1.599999X-1.099999X1.599999X0*%
%TD*%
%TA.AperFunction,ComponentPad*%
%ADD17O,2.700000X3.700000*%
%TD*%
%TA.AperFunction,SMDPad,CuDef*%
%ADD18R,1.400000X0.300000*%
%TD*%
%TA.AperFunction,ComponentPad*%
%ADD19O,1.600000X1.600000*%
%TD*%
%TA.AperFunction,ComponentPad*%
%ADD20C,1.600000*%
%TD*%
%TA.AperFunction,ComponentPad*%
%ADD21C,1.700000*%
%TD*%
%TA.AperFunction,ViaPad*%
%ADD22C,0.800000*%
%TD*%
%TA.AperFunction,Conductor*%
%ADD23C,0.500000*%
%TD*%
%TA.AperFunction,Conductor*%
%ADD24C,0.250000*%
%TD*%
G04 APERTURE END LIST*
D10*
%TO.P,C3,1*%
%TO.N,/+3V3_2*%
X155982500Y-80010000D03*
%TO.P,C3,2*%
%TO.N,GND*%
X157117500Y-80010000D03*
%TD*%
D11*
%TO.P,C4,1*%
%TO.N,/+3V3_2*%
X155687500Y-78105000D03*
%TO.P,C4,2*%
%TO.N,GND*%
X157412500Y-78105000D03*
%TD*%
D12*
%TO.P,U3,*%
%TO.N,*%
X144780000Y-55880000D03*
X144780000Y-68580000D03*
X165100000Y-55880000D03*
X165100000Y-68580000D03*
D13*
%TO.P,U3,0,CSM*%
%TO.N,unconnected-(U3-CSM-Pad0)*%
X151130000Y-55880000D03*
%TO.P,U3,1,CSA*%
%TO.N,unconnected-(U3-CSA-Pad1)*%
X153670000Y-55880000D03*
%TO.P,U3,2,IA1*%
%TO.N,unconnected-(U3-IA1-Pad2)*%
X156210000Y-55880000D03*
%TO.P,U3,3,IA2*%
%TO.N,unconnected-(U3-IA2-Pad3)*%
X158750000Y-55880000D03*
%TO.P,U3,4,VIN*%
%TO.N,/+3V3_2*%
X148590000Y-68580000D03*
%TO.P,U3,5,3V*%
%TO.N,unconnected-(U3-3V-Pad5)*%
X151130000Y-68580000D03*
%TO.P,U3,6,GND*%
%TO.N,GND*%
X153670000Y-68580000D03*
%TO.P,U3,7,SCL*%
%TO.N,/SCL*%
X156210000Y-68580000D03*
%TO.P,U3,8,SDA*%
%TO.N,/SDA*%
X158750000Y-68580000D03*
%TO.P,U3,9,INTM*%
%TO.N,/INTM*%
X161290000Y-68580000D03*
%TD*%
D14*
%TO.P,C2,1*%
%TO.N,/+3V3*%
X171450000Y-83252500D03*
%TO.P,C2,2*%
%TO.N,GND*%
X171450000Y-84387500D03*
%TD*%
D15*
%TO.P,C1,1*%
%TO.N,/+3V3*%
X168656000Y-82957500D03*
%TO.P,C1,2*%
%TO.N,GND*%
X168656000Y-84682500D03*
%TD*%
D16*
%TO.P,J1,1,Pin_1*%
%TO.N,/+3V3*%
X133985000Y-52070000D03*
D17*
%TO.P,J1,2,Pin_2*%
%TO.N,GND*%
X138185000Y-52070000D03*
%TO.P,J1,3,Pin_3*%
%TO.N,/JoystickX*%
X133985000Y-57570000D03*
%TO.P,J1,4,Pin_4*%
%TO.N,/JoystickY*%
X138185000Y-57570000D03*
%TD*%
D18*
%TO.P,U2,1,VDD*%
%TO.N,/+3V3_2*%
X154350000Y-82820000D03*
%TO.P,U2,2,SCL*%
%TO.N,/SCL*%
X154350000Y-83320000D03*
%TO.P,U2,3,SDA*%
%TO.N,/SDA*%
X154350000Y-83820000D03*
%TO.P,U2,4,~{LDAC}*%
%TO.N,/LDAC*%
X154350000Y-84320000D03*
%TO.P,U2,5,RDY/~{BSY}*%
%TO.N,/RDY*%
X154350000Y-84820000D03*
%TO.P,U2,6,VOUTA*%
%TO.N,/JoystickX*%
X158750000Y-84820000D03*
%TO.P,U2,7,VOUTB*%
%TO.N,/JoystickY*%
X158750000Y-84320000D03*
%TO.P,U2,8,VOUTC*%
%TO.N,unconnected-(U2-VOUTC-Pad8)*%
X158750000Y-83820000D03*
%TO.P,U2,9,VOUTD*%
%TO.N,unconnected-(U2-VOUTD-Pad9)*%
X158750000Y-83320000D03*
%TO.P,U2,10,VSS*%
%TO.N,GND*%
X158750000Y-82820000D03*
%TD*%
D19*
%TO.P,R3,2*%
%TO.N,/RDY*%
X145415000Y-76200000D03*
D20*
%TO.P,R3,1*%
%TO.N,/+3V3_2*%
X145415000Y-86360000D03*
%TD*%
D19*
%TO.P,R2,2*%
%TO.N,/SCL*%
X140335000Y-76200000D03*
D20*
%TO.P,R2,1*%
%TO.N,/+3V3_2*%
X140335000Y-86360000D03*
%TD*%
D19*
%TO.P,R1,2*%
%TO.N,/SDA*%
X135255000Y-76200000D03*
D20*
%TO.P,R1,1*%
%TO.N,/+3V3_2*%
X135255000Y-86360000D03*
%TD*%
D21*
%TO.P,U1,40,VBUS*%
%TO.N,unconnected-(U1-VBUS-Pad40)*%
X174243000Y-87630000D03*
%TO.P,U1,39,VSYS*%
%TO.N,/+3V3*%
X174243000Y-85090000D03*
%TO.P,U1,38,GND*%
%TO.N,unconnected-(U1-GND-Pad38)*%
X174243000Y-82550000D03*
%TO.P,U1,37,3V3_EN*%
%TO.N,unconnected-(U1-3V3_EN-Pad37)*%
X174243000Y-80010000D03*
%TO.P,U1,36,3V3*%
%TO.N,/+3V3_2*%
X174243000Y-77470000D03*
%TO.P,U1,35,ADC_VREF*%
%TO.N,unconnected-(U1-ADC_VREF-Pad35)*%
X174243000Y-74930000D03*
%TO.P,U1,34,GP28/ADC2*%
%TO.N,unconnected-(U1-GP28{slash}ADC2-Pad34)*%
X174243000Y-72390000D03*
%TO.P,U1,33,GND*%
%TO.N,GND*%
X174243000Y-69850000D03*
%TO.P,U1,32,GP27/ADC1*%
%TO.N,unconnected-(U1-GP27{slash}ADC1-Pad32)*%
X174243000Y-67310000D03*
%TO.P,U1,31,GP26/ADC0*%
%TO.N,unconnected-(U1-GP26{slash}ADC0-Pad31)*%
X174243000Y-64770000D03*
%TO.P,U1,30,RUN*%
%TO.N,unconnected-(U1-RUN-Pad30)*%
X174243000Y-62230000D03*
%TO.P,U1,29,GP22*%
%TO.N,unconnected-(U1-GP22-Pad29)*%
X174243000Y-59690000D03*
%TO.P,U1,28,GND*%
%TO.N,unconnected-(U1-GND-Pad28)*%
X174243000Y-57150000D03*
%TO.P,U1,27,GP21*%
%TO.N,unconnected-(U1-GP21-Pad27)*%
X174243000Y-54610000D03*
%TO.P,U1,26,GP20*%
%TO.N,unconnected-(U1-GP20-Pad26)*%
X174243000Y-52070000D03*
%TO.P,U1,25,GP19*%
%TO.N,unconnected-(U1-GP19-Pad25)*%
X174243000Y-49530000D03*
%TO.P,U1,24,GP18*%
%TO.N,unconnected-(U1-GP18-Pad24)*%
X174243000Y-46990000D03*
%TO.P,U1,23,GND*%
%TO.N,unconnected-(U1-GND-Pad23)*%
X174243000Y-44450000D03*
%TO.P,U1,22,GP17*%
%TO.N,unconnected-(U1-GP17-Pad22)*%
X174243000Y-41910000D03*
%TO.P,U1,21,GP16*%
%TO.N,unconnected-(U1-GP16-Pad21)*%
X174243000Y-39370000D03*
%TO.P,U1,20,GP15*%
%TO.N,unconnected-(U1-GP15-Pad20)*%
X192023000Y-39370000D03*
%TO.P,U1,19,GP14*%
%TO.N,unconnected-(U1-GP14-Pad19)*%
X192023000Y-41910000D03*
%TO.P,U1,18,GND*%
%TO.N,unconnected-(U1-GND-Pad18)*%
X192023000Y-44450000D03*
%TO.P,U1,17,GP13*%
%TO.N,unconnected-(U1-GP13-Pad17)*%
X192023000Y-46990000D03*
%TO.P,U1,16,GP12*%
%TO.N,unconnected-(U1-GP12-Pad16)*%
X192023000Y-49530000D03*
%TO.P,U1,15,GP11*%
%TO.N,unconnected-(U1-GP11-Pad15)*%
X192023000Y-52070000D03*
%TO.P,U1,14,GP10*%
%TO.N,unconnected-(U1-GP10-Pad14)*%
X192023000Y-54610000D03*
%TO.P,U1,13,GND*%
%TO.N,unconnected-(U1-GND-Pad13)*%
X192023000Y-57150000D03*
%TO.P,U1,12,GP9*%
%TO.N,unconnected-(U1-GP9-Pad12)*%
X192023000Y-59690000D03*
%TO.P,U1,11,GP8*%
%TO.N,unconnected-(U1-GP8-Pad11)*%
X192023000Y-62230000D03*
%TO.P,U1,10,GP7*%
%TO.N,unconnected-(U1-GP7-Pad10)*%
X192023000Y-64770000D03*
%TO.P,U1,9,GP6*%
%TO.N,unconnected-(U1-GP6-Pad9)*%
X192023000Y-67310000D03*
%TO.P,U1,8,GND*%
%TO.N,unconnected-(U1-GND-Pad8)*%
X192023000Y-69850000D03*
%TO.P,U1,7,GP5*%
%TO.N,/SCL*%
X192023000Y-72390000D03*
%TO.P,U1,6,GP4*%
%TO.N,/SDA*%
X192023000Y-74930000D03*
%TO.P,U1,5,GP3*%
%TO.N,unconnected-(U1-GP3-Pad5)*%
X192023000Y-77470000D03*
%TO.P,U1,4,GP2*%
%TO.N,/INTM*%
X192023000Y-80010000D03*
%TO.P,U1,3,GND*%
%TO.N,unconnected-(U1-GND-Pad3)*%
X192023000Y-82550000D03*
%TO.P,U1,2,GP1*%
%TO.N,/RDY*%
X192023000Y-85090000D03*
%TO.P,U1,1,GP0*%
%TO.N,/LDAC*%
X192023000Y-87630000D03*
%TD*%
D22*
%TO.N,/INTM*%
X182245000Y-87630000D03*
X187960000Y-87630000D03*
%TO.N,/+3V3*%
X168910000Y-81280000D03*
%TO.N,/JoystickX*%
X163195000Y-83820000D03*
%TO.N,/JoystickY*%
X161290000Y-83820000D03*
%TO.N,/SDA*%
X156845000Y-83820000D03*
%TO.N,/SCL*%
X156210000Y-82550000D03*
%TO.N,/+3V3_2*%
X148590000Y-74930000D03*
%TO.N,/RDY*%
X151511000Y-84836000D03*
%TD*%
D23*
%TO.N,GND*%
X138185000Y-52070000D02*
X141605000Y-55490000D01*
X141605000Y-55490000D02*
X141605000Y-58420000D01*
X141605000Y-58420000D02*
X149225000Y-66040000D01*
X149225000Y-66040000D02*
X152400000Y-66040000D01*
D24*
%TO.N,/RDY*%
X192023000Y-85090000D02*
X193040000Y-85090000D01*
X193040000Y-85090000D02*
X194310000Y-86360000D01*
X194310000Y-86360000D02*
X194310000Y-89535000D01*
X194310000Y-89535000D02*
X191770000Y-92075000D01*
X191770000Y-92075000D02*
X157480000Y-92075000D01*
X157480000Y-92075000D02*
X154350000Y-88945000D01*
X154350000Y-88945000D02*
X154350000Y-84820000D01*
%TO.N,/SCL*%
X140335000Y-76200000D02*
X144145000Y-72390000D01*
X144145000Y-72390000D02*
X152400000Y-72390000D01*
X152400000Y-72390000D02*
X156210000Y-68580000D01*
D23*
%TO.N,/+3V3_2*%
X135255000Y-86360000D02*
X145415000Y-86360000D01*
X145415000Y-86360000D02*
X145415000Y-83820000D01*
X145415000Y-83820000D02*
X154305000Y-74930000D01*
X154305000Y-74930000D02*
X154940000Y-74930000D01*
D24*
%TO.N,/SDA*%
X156845000Y-83820000D02*
X156845000Y-84415000D01*
X190500000Y-74930000D02*
X192023000Y-74930000D01*
X156845000Y-84415000D02*
X163235000Y-90805000D01*
X163235000Y-90805000D02*
X187325000Y-90805000D01*
X187325000Y-90805000D02*
X189230000Y-88900000D01*
X189230000Y-88900000D02*
X189230000Y-76200000D01*
X189230000Y-76200000D02*
X190500000Y-74930000D01*
D23*
%TO.N,GND*%
X168275000Y-66040000D02*
X152400000Y-66040000D01*
D24*
%TO.N,/LDAC*%
X162520000Y-91440000D02*
X191135000Y-91440000D01*
D23*
%TO.N,GND*%
X172085000Y-69850000D02*
X168275000Y-66040000D01*
X168656000Y-86741000D02*
X168656000Y-84682500D01*
X174243000Y-69850000D02*
X172085000Y-69850000D01*
X171450000Y-89535000D02*
X168656000Y-86741000D01*
X179070000Y-89535000D02*
X171450000Y-89535000D01*
X180340000Y-88265000D02*
X179070000Y-89535000D01*
X180340000Y-71120000D02*
X180340000Y-88265000D01*
X179070000Y-69850000D02*
X180340000Y-71120000D01*
X174243000Y-69850000D02*
X179070000Y-69850000D01*
%TO.N,/+3V3_2*%
X160655000Y-76200000D02*
X156845000Y-76200000D01*
X161925000Y-77470000D02*
X160655000Y-76200000D01*
X174243000Y-77470000D02*
X161925000Y-77470000D01*
%TO.N,/+3V3*%
X172405500Y-83252500D02*
X174243000Y-85090000D01*
X171450000Y-83252500D02*
X172405500Y-83252500D01*
D24*
%TO.N,/LDAC*%
X154350000Y-84320000D02*
X155400000Y-84320000D01*
X155400000Y-84320000D02*
X162520000Y-91440000D01*
X191135000Y-91440000D02*
X192023000Y-90552000D01*
X192023000Y-90552000D02*
X192023000Y-87630000D01*
D23*
%TO.N,/+3V3_2*%
X148590000Y-74930000D02*
X154940000Y-74930000D01*
X154940000Y-74930000D02*
X155575000Y-74930000D01*
X155575000Y-74930000D02*
X156845000Y-76200000D01*
X156845000Y-76200000D02*
X155687500Y-77357500D01*
X155687500Y-77357500D02*
X155687500Y-78105000D01*
D24*
%TO.N,/INTM*%
X187960000Y-87630000D02*
X182245000Y-87630000D01*
D23*
%TO.N,/+3V3*%
X168656000Y-82957500D02*
X168656000Y-81534000D01*
X168656000Y-81534000D02*
X168910000Y-81280000D01*
X168656000Y-82957500D02*
X171155000Y-82957500D01*
%TO.N,GND*%
X153670000Y-68580000D02*
X153670000Y-67310000D01*
X153670000Y-67310000D02*
X152400000Y-66040000D01*
D24*
%TO.N,/JoystickX*%
X162195000Y-84820000D02*
X163195000Y-83820000D01*
X158750000Y-84820000D02*
X162195000Y-84820000D01*
%TO.N,/JoystickY*%
X160790000Y-84320000D02*
X161290000Y-83820000D01*
X158750000Y-84320000D02*
X160790000Y-84320000D01*
%TO.N,/SDA*%
X154350000Y-83820000D02*
X156845000Y-83820000D01*
%TO.N,/SCL*%
X155440000Y-83320000D02*
X156210000Y-82550000D01*
X154350000Y-83320000D02*
X155440000Y-83320000D01*
%TO.N,/RDY*%
X154350000Y-84820000D02*
X151527000Y-84820000D01*
%TO.N,GND*%
X158750000Y-82820000D02*
X158750000Y-81642500D01*
X158750000Y-81642500D02*
X157117500Y-80010000D01*
%TO.N,/+3V3_2*%
X154350000Y-82820000D02*
X154350000Y-81642500D01*
X154350000Y-81642500D02*
X155982500Y-80010000D01*
D23*
%TO.N,GND*%
X157412500Y-78105000D02*
X157412500Y-79715000D01*
X157412500Y-79715000D02*
X157117500Y-80010000D01*
%TO.N,/+3V3_2*%
X155687500Y-78105000D02*
X155687500Y-79715000D01*
X155687500Y-79715000D02*
X155982500Y-80010000D01*
%TO.N,GND*%
X168656000Y-84682500D02*
X171155000Y-84682500D01*
X171155000Y-84682500D02*
X171450000Y-84387500D01*
X168656000Y-84682500D02*
X166692500Y-84682500D01*
X166692500Y-84682500D02*
X164830000Y-82820000D01*
D24*
X158750000Y-82820000D02*
X162560000Y-82820000D01*
D23*
X164830000Y-82820000D02*
X162560000Y-82820000D01*
%TO.N,/+3V3*%
X171155000Y-82957500D02*
X171450000Y-83252500D01*
%TD*%
M02*
